<?xml version="1.0" encoding="UTF-8"?>
<svg id="model" xmlns="http://www.w3.org/2000/svg" xmlns:xlink="http://www.w3.org/1999/xlink" version="1.1" viewBox="0.0 0.0 960.0 240.0" fill="none" stroke="none" stroke-linecap="square" stroke-miterlimit="10">
   <clipPath id="p.0">
      <path d="m0 0l960.0 0l0 540.0l-960.0 0l0 -540.0z" clip-rule="nonzero" />
   </clipPath>
   <g clip-path="url(#p.0)">
      <path fill="#ffffff" d="m0 0l960.0 0l0 540.0l-960.0 0z" fill-rule="evenodd" />
      <path fill="#eeeeee" d="m616.32544 169.6273l15.417358 -15.417328l15.417297 15.417328l-7.708679 0l0 15.417313l-15.417297 0l0 -15.417313z" fill-rule="evenodd" />
      <path stroke="#595959" stroke-width="1.0" stroke-linejoin="round" stroke-linecap="butt" d="m616.32544 169.6273l15.417358 -15.417328l15.417297 15.417328l-7.708679 0l0 15.417313l-15.417297 0l0 -15.417313z" fill-rule="evenodd" />
      <path fill="#000000" fill-opacity="0.0" d="m375.80054 179.8189l507.40155 0l0 59.2126l-507.40155 0z" fill-rule="evenodd" />
      <path fill="#000000" d="m581.746 201.6189l-1.828125 -9.546875l1.234375 0l1.09375 5.6875q0.3125 1.5625 0.40625 2.5q0.59375 -1.21875 0.984375 -1.9375l3.390625 -6.25l1.328125 0l-5.234375 9.546875l-1.375 0zm10.0199585 -0.859375q-0.625 0.53125 -1.1875 0.78125q-0.5625 0.234375 -1.203125 0.234375q-0.96875 0 -1.5625 -0.5625q-0.578125 -0.5625 -0.578125 -1.4375q0 -0.578125 0.265625 -1.015625q0.265625 -0.453125 0.703125 -0.71875q0.4375 -0.28125 1.0625 -0.390625q0.40625 -0.078125 1.515625 -0.125q1.109375 -0.046875 1.59375 -0.234375q0.125 -0.484375 0.125 -0.8125q0 -0.40625 -0.296875 -0.640625q-0.40625 -0.328125 -1.1875 -0.328125q-0.75 0 -1.21875 0.328125q-0.46875 0.328125 -0.6875 0.9375l-1.1875 -0.109375q0.359375 -1.015625 1.140625 -1.5625q0.796875 -0.546875 2.0 -0.546875q1.28125 0 2.03125 0.609375q0.578125 0.453125 0.578125 1.1875q0 0.546875 -0.15625 1.28125l-0.390625 1.71875q-0.1875 0.8125 -0.1875 1.328125q0 0.328125 0.15625 0.9375l-1.203125 0q-0.09375 -0.34375 -0.125 -0.859375zm0.421875 -2.640625q-0.234375 0.09375 -0.53125 0.15625q-0.28125 0.046875 -0.9375 0.109375q-1.03125 0.078125 -1.453125 0.21875q-0.421875 0.140625 -0.640625 0.453125q-0.21875 0.296875 -0.21875 0.671875q0 0.5 0.34375 0.828125q0.34375 0.3125 0.984375 0.3125q0.578125 0 1.109375 -0.3125q0.546875 -0.3125 0.859375 -0.859375q0.3125 -0.5625 0.484375 -1.578125zm2.2249756 3.5l2.0 -9.546875l1.171875 0l-1.984375 9.546875l-1.1875 0zm7.7736206 -1.25q-1.234375 1.40625 -2.546875 1.40625q-0.796875 0 -1.296875 -0.453125q-0.484375 -0.46875 -0.484375 -1.125q0 -0.4375 0.21875 -1.5l0.84375 -3.984375l1.171875 0l-0.921875 4.40625q-0.109375 0.5625 -0.109375 0.859375q0 0.390625 0.234375 0.609375q0.234375 0.21875 0.703125 0.21875q0.484375 0 0.953125 -0.234375q0.484375 -0.234375 0.8125 -0.640625q0.34375 -0.421875 0.5625 -0.984375q0.140625 -0.359375 0.328125 -1.25l0.625 -2.984375l1.1875 0l-1.453125 6.90625l-1.078125 0l0.25 -1.25zm7.7718506 -1.09375l1.15625 0.109375q-0.25 0.859375 -1.140625 1.625q-0.890625 0.765625 -2.125 0.765625q-0.765625 0 -1.40625 -0.34375q-0.640625 -0.359375 -0.984375 -1.03125q-0.328125 -0.6875 -0.328125 -1.546875q0 -1.140625 0.515625 -2.203125q0.53125 -1.0625 1.359375 -1.578125q0.84375 -0.515625 1.8125 -0.515625q1.234375 0 1.96875 0.765625q0.75 0.765625 0.75 2.09375q0 0.5 -0.09375 1.046875l-5.09375 0q-0.03125 0.1875 -0.03125 0.359375q0 0.96875 0.4375 1.484375q0.453125 0.5 1.109375 0.5q0.59375 0 1.171875 -0.390625q0.59375 -0.390625 0.921875 -1.140625zm-3.421875 -1.71875l3.875 0q0.015625 -0.1875 0.015625 -0.265625q0 -0.875 -0.453125 -1.34375q-0.4375 -0.484375 -1.125 -0.484375q-0.765625 0 -1.390625 0.53125q-0.609375 0.515625 -0.921875 1.5625zm5.8656006 1.703125l1.1875 -0.078125q0 0.515625 0.15625 0.875q0.15625 0.359375 0.578125 0.59375q0.421875 0.21875 0.96875 0.21875q0.78125 0 1.171875 -0.3125q0.390625 -0.3125 0.390625 -0.734375q0 -0.3125 -0.234375 -0.578125q-0.234375 -0.28125 -1.171875 -0.671875q-0.9375 -0.40625 -1.1875 -0.578125q-0.4375 -0.265625 -0.671875 -0.625q-0.21875 -0.359375 -0.21875 -0.828125q0 -0.8125 0.65625 -1.390625q0.65625 -0.59375 1.828125 -0.59375q1.296875 0 1.96875 0.609375q0.6875 0.59375 0.71875 1.578125l-1.15625 0.078125q-0.03125 -0.625 -0.453125 -0.984375q-0.40625 -0.375 -1.171875 -0.375q-0.609375 0 -0.953125 0.28125q-0.328125 0.28125 -0.328125 0.609375q0 0.3125 0.296875 0.5625q0.1875 0.171875 1.0 0.53125q1.359375 0.578125 1.703125 0.921875q0.5625 0.53125 0.5625 1.3125q0 0.515625 -0.3125 1.015625q-0.3125 0.484375 -0.96875 0.78125q-0.640625 0.296875 -1.515625 0.296875q-1.203125 0 -2.046875 -0.59375q-0.84375 -0.59375 -0.796875 -1.921875zm11.929565 -5.84375l0.28125 -1.34375l1.171875 0l-0.28125 1.34375l-1.171875 0zm-1.71875 8.203125l1.453125 -6.90625l1.171875 0l-1.4375 6.90625l-1.1875 0zm3.0079346 0l1.453125 -6.90625l1.0625 0l-0.25 1.203125q0.6875 -0.71875 1.296875 -1.03125q0.609375 -0.328125 1.234375 -0.328125q0.84375 0 1.3125 0.453125q0.484375 0.453125 0.484375 1.21875q0 0.375 -0.171875 1.203125l-0.875 4.1875l-1.171875 0l0.921875 -4.375q0.125 -0.640625 0.125 -0.953125q0 -0.34375 -0.234375 -0.546875q-0.234375 -0.21875 -0.6875 -0.21875q-0.90625 0 -1.609375 0.65625q-0.703125 0.640625 -1.03125 2.21875l-0.671875 3.21875l-1.1875 0zm13.8811035 -0.953125l-0.203125 0.953125q-0.421875 0.109375 -0.8125 0.109375q-0.703125 0 -1.125 -0.34375q-0.3125 -0.25 -0.3125 -0.703125q0 -0.234375 0.171875 -1.046875l0.828125 -4.015625l-0.921875 0l0.1875 -0.90625l0.9375 0l0.34375 -1.703125l1.359375 -0.8125l-0.53125 2.515625l1.15625 0l-0.1875 0.90625l-1.15625 0l-0.796875 3.8125q-0.15625 0.734375 -0.15625 0.875q0 0.21875 0.109375 0.328125q0.125 0.109375 0.40625 0.109375q0.390625 0 0.703125 -0.078125zm0.9373779 0.953125l2.0 -9.546875l1.171875 0l-0.765625 3.671875q0.65625 -0.640625 1.21875 -0.90625q0.578125 -0.28125 1.171875 -0.28125q0.859375 0 1.328125 0.453125q0.484375 0.453125 0.484375 1.1875q0 0.359375 -0.203125 1.34375l-0.859375 4.078125l-1.171875 0l0.875 -4.1875q0.1875 -0.90625 0.1875 -1.140625q0 -0.34375 -0.234375 -0.546875q-0.234375 -0.21875 -0.671875 -0.21875q-0.640625 0 -1.21875 0.34375q-0.578125 0.328125 -0.90625 0.90625q-0.328125 0.578125 -0.609375 1.875l-0.609375 2.96875l-1.1875 0zm9.084351 -8.203125l0.28125 -1.34375l1.171875 0l-0.28125 1.34375l-1.171875 0zm-1.71875 8.203125l1.453125 -6.90625l1.171875 0l-1.4375 6.90625l-1.1875 0zm3.1173096 -2.359375l1.1875 -0.078125q0 0.515625 0.15625 0.875q0.15625 0.359375 0.578125 0.59375q0.421875 0.21875 0.96875 0.21875q0.78125 0 1.171875 -0.3125q0.390625 -0.3125 0.390625 -0.734375q0 -0.3125 -0.234375 -0.578125q-0.234375 -0.28125 -1.171875 -0.671875q-0.9375 -0.40625 -1.1875 -0.578125q-0.4375 -0.265625 -0.671875 -0.625q-0.21875 -0.359375 -0.21875 -0.828125q0 -0.8125 0.65625 -1.390625q0.65625 -0.59375 1.828125 -0.59375q1.296875 0 1.96875 0.609375q0.6875 0.59375 0.71875 1.578125l-1.15625 0.078125q-0.03125 -0.625 -0.453125 -0.984375q-0.40625 -0.375 -1.171875 -0.375q-0.609375 0 -0.953125 0.28125q-0.328125 0.28125 -0.328125 0.609375q0 0.3125 0.296875 0.5625q0.1875 0.171875 1.0 0.53125q1.359375 0.578125 1.703125 0.921875q0.5625 0.53125 0.5625 1.3125q0 0.515625 -0.3125 1.015625q-0.3125 0.484375 -0.96875 0.78125q-0.640625 0.296875 -1.515625 0.296875q-1.203125 0 -2.046875 -0.59375q-0.84375 -0.59375 -0.796875 -1.921875zm15.03894 -0.15625l1.171875 0.125q-0.4375 1.296875 -1.265625 1.921875q-0.8125 0.625 -1.84375 0.625q-1.140625 0 -1.84375 -0.71875q-0.6875 -0.734375 -0.6875 -2.046875q0 -1.125 0.4375 -2.21875q0.453125 -1.09375 1.28125 -1.65625q0.84375 -0.578125 1.921875 -0.578125q1.109375 0 1.765625 0.625q0.65625 0.625 0.65625 1.65625l-1.15625 0.078125q-0.015625 -0.65625 -0.390625 -1.015625q-0.375 -0.375 -0.984375 -0.375q-0.703125 0 -1.234375 0.453125q-0.515625 0.4375 -0.8125 1.359375q-0.296875 0.90625 -0.296875 1.75q0 0.890625 0.390625 1.34375q0.390625 0.4375 0.96875 0.4375q0.5625 0 1.078125 -0.4375q0.53125 -0.4375 0.84375 -1.328125zm6.9609375 0.171875l1.15625 0.109375q-0.25 0.859375 -1.140625 1.625q-0.890625 0.765625 -2.125 0.765625q-0.765625 0 -1.40625 -0.34375q-0.640625 -0.359375 -0.984375 -1.03125q-0.328125 -0.6875 -0.328125 -1.546875q0 -1.140625 0.515625 -2.203125q0.53125 -1.0625 1.359375 -1.578125q0.84375 -0.515625 1.8125 -0.515625q1.234375 0 1.96875 0.765625q0.75 0.765625 0.75 2.09375q0 0.5 -0.09375 1.046875l-5.09375 0q-0.03125 0.1875 -0.03125 0.359375q0 0.96875 0.4375 1.484375q0.453125 0.5 1.109375 0.5q0.59375 0 1.171875 -0.390625q0.59375 -0.390625 0.921875 -1.140625zm-3.421875 -1.71875l3.875 0q0.015625 -0.1875 0.015625 -0.265625q0 -0.875 -0.453125 -1.34375q-0.4375 -0.484375 -1.125 -0.484375q-0.765625 0 -1.390625 0.53125q-0.609375 0.515625 -0.921875 1.5625zm5.6624756 4.0625l2.0 -9.546875l1.171875 0l-1.984375 9.546875l-1.1875 0zm2.9610596 0l2.0 -9.546875l1.171875 0l-1.984375 9.546875l-1.1875 0z" fill-rule="nonzero" />
      <path fill="#000000" d="m564.14813 217.6189l2.0 -9.546875l2.953125 0q0.8125 0 1.203125 0.078125q0.625 0.109375 1.0625 0.390625q0.453125 0.265625 0.6875 0.75q0.25 0.46875 0.25 1.046875q0 0.796875 -0.4375 1.390625q-0.4375 0.59375 -1.328125 0.90625q0.78125 0.265625 1.15625 0.78125q0.390625 0.5 0.390625 1.1875q0 0.78125 -0.453125 1.515625q-0.453125 0.71875 -1.203125 1.109375q-0.734375 0.390625 -1.65625 0.390625l-4.625 0zm2.421875 -5.46875l1.9375 0q1.375 0 1.984375 -0.4375q0.609375 -0.453125 0.609375 -1.296875q0 -0.390625 -0.1875 -0.6875q-0.1875 -0.296875 -0.5 -0.421875q-0.3125 -0.140625 -1.1875 -0.140625l-2.03125 0l-0.625 2.984375zm-0.921875 4.390625l2.171875 0q0.875 0 1.171875 -0.0625q0.609375 -0.109375 0.984375 -0.359375q0.375 -0.25 0.578125 -0.65625q0.21875 -0.40625 0.21875 -0.859375q0 -0.671875 -0.421875 -1.015625q-0.40625 -0.34375 -1.59375 -0.34375l-2.421875 0l-0.6875 3.296875zm12.327209 -1.265625l1.15625 0.109375q-0.25 0.859375 -1.140625 1.625q-0.890625 0.765625 -2.125 0.765625q-0.765625 0 -1.40625 -0.34375q-0.640625 -0.359375 -0.984375 -1.03125q-0.328125 -0.6875 -0.328125 -1.546875q0 -1.140625 0.515625 -2.203125q0.53125 -1.0625 1.359375 -1.578125q0.84375 -0.515625 1.8125 -0.515625q1.234375 0 1.96875 0.765625q0.75 0.765625 0.75 2.09375q0 0.5 -0.09375 1.046875l-5.09375 0q-0.03125 0.1875 -0.03125 0.359375q0 0.96875 0.4375 1.484375q0.453125 0.5 1.109375 0.5q0.59375 0 1.171875 -0.390625q0.59375 -0.390625 0.921875 -1.140625zm-3.421875 -1.71875l3.875 0q0.015625 -0.1875 0.015625 -0.265625q0 -0.875 -0.453125 -1.34375q-0.4375 -0.484375 -1.125 -0.484375q-0.765625 0 -1.390625 0.53125q-0.609375 0.515625 -0.921875 1.5625zm10.537476 1.546875l1.171875 0.125q-0.4375 1.296875 -1.265625 1.921875q-0.8125 0.625 -1.84375 0.625q-1.140625 0 -1.84375 -0.71875q-0.6875 -0.734375 -0.6875 -2.046875q0 -1.125 0.4375 -2.21875q0.453125 -1.09375 1.28125 -1.65625q0.84375 -0.578125 1.921875 -0.578125q1.109375 0 1.765625 0.625q0.65625 0.625 0.65625 1.65625l-1.15625 0.078125q-0.015625 -0.65625 -0.390625 -1.015625q-0.375 -0.375 -0.984375 -0.375q-0.703125 0 -1.234375 0.453125q-0.515625 0.4375 -0.8125 1.359375q-0.296875 0.90625 -0.296875 1.75q0 0.890625 0.390625 1.34375q0.390625 0.4375 0.96875 0.4375q0.5625 0 1.078125 -0.4375q0.53125 -0.4375 0.84375 -1.328125zm2.1015625 -0.109375q0 -2.015625 1.1875 -3.34375q0.984375 -1.09375 2.578125 -1.09375q1.25 0 2.015625 0.78125q0.765625 0.78125 0.765625 2.109375q0 1.1875 -0.484375 2.21875q-0.484375 1.015625 -1.375 1.5625q-0.890625 0.546875 -1.875 0.546875q-0.796875 0 -1.46875 -0.34375q-0.65625 -0.34375 -1.0 -0.96875q-0.34375 -0.640625 -0.34375 -1.46875zm1.171875 -0.109375q0 0.96875 0.46875 1.484375q0.46875 0.5 1.1875 0.5q0.375 0 0.75 -0.15625q0.375 -0.15625 0.6875 -0.46875q0.328125 -0.3125 0.546875 -0.703125q0.21875 -0.40625 0.359375 -0.875q0.203125 -0.640625 0.203125 -1.234375q0 -0.9375 -0.46875 -1.453125q-0.46875 -0.515625 -1.1875 -0.515625q-0.5625 0 -1.015625 0.265625q-0.453125 0.265625 -0.828125 0.78125q-0.359375 0.5 -0.53125 1.171875q-0.171875 0.671875 -0.171875 1.203125zm6.0218506 2.734375l1.4375 -6.90625l1.1875 0l-0.25 1.140625q0.65625 -0.75 1.171875 -1.015625q0.53125 -0.28125 1.125 -0.28125q0.65625 0 1.078125 0.34375q0.4375 0.328125 0.578125 0.953125q0.515625 -0.65625 1.09375 -0.96875q0.59375 -0.328125 1.234375 -0.328125q0.875 0 1.296875 0.40625q0.4375 0.40625 0.4375 1.15625q0 0.3125 -0.15625 1.046875l-0.921875 4.453125l-1.171875 0l0.9375 -4.5625q0.125 -0.5625 0.125 -0.8125q0 -0.328125 -0.21875 -0.515625q-0.203125 -0.203125 -0.59375 -0.203125q-0.53125 0 -1.078125 0.328125q-0.546875 0.3125 -0.859375 0.828125q-0.296875 0.515625 -0.515625 1.59375l-0.703125 3.34375l-1.1875 0l0.984375 -4.671875q0.109375 -0.46875 0.109375 -0.671875q0 -0.34375 -0.21875 -0.546875q-0.21875 -0.203125 -0.546875 -0.203125q-0.5 0 -1.0625 0.328125q-0.546875 0.3125 -0.890625 0.875q-0.34375 0.5625 -0.5625 1.625l-0.6875 3.265625l-1.171875 0zm16.180603 -2.34375l1.15625 0.109375q-0.25 0.859375 -1.140625 1.625q-0.890625 0.765625 -2.125 0.765625q-0.765625 0 -1.40625 -0.34375q-0.640625 -0.359375 -0.984375 -1.03125q-0.328125 -0.6875 -0.328125 -1.546875q0 -1.140625 0.515625 -2.203125q0.53125 -1.0625 1.359375 -1.578125q0.84375 -0.515625 1.8125 -0.515625q1.234375 0 1.96875 0.765625q0.75 0.765625 0.75 2.09375q0 0.5 -0.09375 1.046875l-5.09375 0q-0.03125 0.1875 -0.03125 0.359375q0 0.96875 0.4375 1.484375q0.453125 0.5 1.109375 0.5q0.59375 0 1.171875 -0.390625q0.59375 -0.390625 0.921875 -1.140625zm-3.421875 -1.71875l3.875 0q0.015625 -0.1875 0.015625 -0.265625q0 -0.875 -0.453125 -1.34375q-0.4375 -0.484375 -1.125 -0.484375q-0.765625 0 -1.390625 0.53125q-0.609375 0.515625 -0.921875 1.5625zm8.8810425 6.71875l2.0 -9.5625l1.09375 0l-0.203125 0.953125q0.59375 -0.625 1.078125 -0.859375q0.484375 -0.25 1.015625 -0.25q0.984375 0 1.625 0.71875q0.65625 0.71875 0.65625 2.0625q0 1.078125 -0.359375 1.96875q-0.34375 0.875 -0.875 1.421875q-0.515625 0.546875 -1.046875 0.796875q-0.53125 0.25 -1.09375 0.25q-1.25 0 -1.921875 -1.265625l-0.78125 3.765625l-1.1875 0zm2.328125 -5.484375q0 0.78125 0.109375 1.078125q0.171875 0.421875 0.53125 0.6875q0.375 0.25 0.875 0.25q1.015625 0 1.640625 -1.140625q0.625 -1.140625 0.625 -2.328125q0 -0.875 -0.421875 -1.359375q-0.421875 -0.484375 -1.046875 -0.484375q-0.453125 0 -0.84375 0.25q-0.375 0.234375 -0.703125 0.703125q-0.328125 0.46875 -0.546875 1.15625q-0.21875 0.6875 -0.21875 1.1875zm10.334351 1.96875q-0.625 0.53125 -1.1875 0.78125q-0.5625 0.234375 -1.203125 0.234375q-0.96875 0 -1.5625 -0.5625q-0.578125 -0.5625 -0.578125 -1.4375q0 -0.578125 0.265625 -1.015625q0.265625 -0.453125 0.703125 -0.71875q0.4375 -0.28125 1.0625 -0.390625q0.40625 -0.078125 1.515625 -0.125q1.109375 -0.046875 1.59375 -0.234375q0.125 -0.484375 0.125 -0.8125q0 -0.40625 -0.296875 -0.640625q-0.40625 -0.328125 -1.1875 -0.328125q-0.75 0 -1.21875 0.328125q-0.46875 0.328125 -0.6875 0.9375l-1.1875 -0.109375q0.359375 -1.015625 1.140625 -1.5625q0.796875 -0.546875 2.0 -0.546875q1.28125 0 2.03125 0.609375q0.578125 0.453125 0.578125 1.1875q0 0.546875 -0.15625 1.28125l-0.390625 1.71875q-0.1875 0.8125 -0.1875 1.328125q0 0.328125 0.15625 0.9375l-1.203125 0q-0.09375 -0.34375 -0.125 -0.859375zm0.421875 -2.640625q-0.234375 0.09375 -0.53125 0.15625q-0.28125 0.046875 -0.9375 0.109375q-1.03125 0.078125 -1.453125 0.21875q-0.421875 0.140625 -0.640625 0.453125q-0.21875 0.296875 -0.21875 0.671875q0 0.5 0.34375 0.828125q0.34375 0.3125 0.984375 0.3125q0.578125 0 1.109375 -0.3125q0.546875 -0.3125 0.859375 -0.859375q0.3125 -0.5625 0.484375 -1.578125zm2.3187256 3.5l1.453125 -6.90625l1.03125 0l-0.28125 1.40625q0.53125 -0.796875 1.03125 -1.171875q0.515625 -0.390625 1.046875 -0.390625q0.359375 0 0.875 0.25l-0.484375 1.09375q-0.3125 -0.21875 -0.671875 -0.21875q-0.625 0 -1.28125 0.6875q-0.640625 0.6875 -1.015625 2.484375l-0.578125 2.765625l-1.125 0zm7.2040405 -0.953125l-0.203125 0.953125q-0.421875 0.109375 -0.8125 0.109375q-0.703125 0 -1.125 -0.34375q-0.3125 -0.25 -0.3125 -0.703125q0 -0.234375 0.171875 -1.046875l0.828125 -4.015625l-0.921875 0l0.1875 -0.90625l0.9375 0l0.34375 -1.703125l1.359375 -0.8125l-0.53125 2.515625l1.15625 0l-0.1875 0.90625l-1.15625 0l-0.796875 3.8125q-0.15625 0.734375 -0.15625 0.875q0 0.21875 0.109375 0.328125q0.125 0.109375 0.40625 0.109375q0.390625 0 0.703125 -0.078125zm4.85907 -1.671875q0 -2.015625 1.1875 -3.34375q0.984375 -1.09375 2.578125 -1.09375q1.25 0 2.015625 0.78125q0.765625 0.78125 0.765625 2.109375q0 1.1875 -0.484375 2.21875q-0.484375 1.015625 -1.375 1.5625q-0.890625 0.546875 -1.875 0.546875q-0.796875 0 -1.46875 -0.34375q-0.65625 -0.34375 -1.0 -0.96875q-0.34375 -0.640625 -0.34375 -1.46875zm1.171875 -0.109375q0 0.96875 0.46875 1.484375q0.46875 0.5 1.1875 0.5q0.375 0 0.75 -0.15625q0.375 -0.15625 0.6875 -0.46875q0.328125 -0.3125 0.546875 -0.703125q0.21875 -0.40625 0.359375 -0.875q0.203125 -0.640625 0.203125 -1.234375q0 -0.9375 -0.46875 -1.453125q-0.46875 -0.515625 -1.1875 -0.515625q-0.5625 0 -1.015625 0.265625q-0.453125 0.265625 -0.828125 0.78125q-0.359375 0.5 -0.53125 1.171875q-0.171875 0.671875 -0.171875 1.203125zm6.1937256 2.734375l1.25 -6.0l-1.046875 0l0.1875 -0.90625l1.046875 0l0.203125 -0.984375q0.15625 -0.734375 0.3125 -1.0625q0.171875 -0.328125 0.546875 -0.53125q0.375 -0.21875 1.015625 -0.21875q0.453125 0 1.3125 0.1875l-0.21875 1.03125q-0.59375 -0.15625 -1.0 -0.15625q-0.34375 0 -0.53125 0.171875q-0.171875 0.171875 -0.296875 0.8125l-0.15625 0.75l1.3125 0l-0.1875 0.90625l-1.3125 0l-1.265625 6.0l-1.171875 0zm7.452881 -2.625q0 -2.015625 1.1875 -3.34375q0.984375 -1.09375 2.578125 -1.09375q1.25 0 2.015625 0.78125q0.765625 0.78125 0.765625 2.109375q0 1.1875 -0.484375 2.21875q-0.484375 1.015625 -1.375 1.5625q-0.890625 0.546875 -1.875 0.546875q-0.796875 0 -1.46875 -0.34375q-0.65625 -0.34375 -1.0 -0.96875q-0.34375 -0.640625 -0.34375 -1.46875zm1.171875 -0.109375q0 0.96875 0.46875 1.484375q0.46875 0.5 1.1875 0.5q0.375 0 0.75 -0.15625q0.375 -0.15625 0.6875 -0.46875q0.328125 -0.3125 0.546875 -0.703125q0.21875 -0.40625 0.359375 -0.875q0.203125 -0.640625 0.203125 -1.234375q0 -0.9375 -0.46875 -1.453125q-0.46875 -0.515625 -1.1875 -0.515625q-0.5625 0 -1.015625 0.265625q-0.453125 0.265625 -0.828125 0.78125q-0.359375 0.5 -0.53125 1.171875q-0.171875 0.671875 -0.171875 1.203125zm6.1937256 2.734375l1.25 -6.0l-1.046875 0l0.1875 -0.90625l1.046875 0l0.203125 -0.984375q0.15625 -0.734375 0.3125 -1.0625q0.171875 -0.328125 0.546875 -0.53125q0.375 -0.21875 1.015625 -0.21875q0.453125 0 1.3125 0.1875l-0.21875 1.03125q-0.59375 -0.15625 -1.0 -0.15625q-0.34375 0 -0.53125 0.171875q-0.171875 0.171875 -0.296875 0.8125l-0.15625 0.75l1.3125 0l-0.1875 0.90625l-1.3125 0l-1.265625 6.0l-1.171875 0zm3.702942 0l1.25 -6.0l-1.046875 0l0.1875 -0.90625l1.046875 0l0.203125 -0.984375q0.15625 -0.734375 0.3125 -1.0625q0.171875 -0.328125 0.546875 -0.53125q0.375 -0.21875 1.015625 -0.21875q0.453125 0 1.3125 0.1875l-0.21875 1.03125q-0.59375 -0.15625 -1.0 -0.15625q-0.34375 0 -0.53125 0.171875q-0.171875 0.171875 -0.296875 0.8125l-0.15625 0.75l1.3125 0l-0.1875 0.90625l-1.3125 0l-1.265625 6.0l-1.171875 0zm5.203003 -8.203125l0.28125 -1.34375l1.171875 0l-0.28125 1.34375l-1.171875 0zm-1.71875 8.203125l1.453125 -6.90625l1.171875 0l-1.4375 6.90625l-1.1875 0zm7.7892456 -2.515625l1.171875 0.125q-0.4375 1.296875 -1.265625 1.921875q-0.8125 0.625 -1.84375 0.625q-1.140625 0 -1.84375 -0.71875q-0.6875 -0.734375 -0.6875 -2.046875q0 -1.125 0.4375 -2.21875q0.453125 -1.09375 1.28125 -1.65625q0.84375 -0.578125 1.921875 -0.578125q1.109375 0 1.765625 0.625q0.65625 0.625 0.65625 1.65625l-1.15625 0.078125q-0.015625 -0.65625 -0.390625 -1.015625q-0.375 -0.375 -0.984375 -0.375q-0.703125 0 -1.234375 0.453125q-0.515625 0.4375 -0.8125 1.359375q-0.296875 0.90625 -0.296875 1.75q0 0.890625 0.390625 1.34375q0.390625 0.4375 0.96875 0.4375q0.5625 0 1.078125 -0.4375q0.53125 -0.4375 0.84375 -1.328125zm3.5546875 -5.6875l0.28125 -1.34375l1.171875 0l-0.28125 1.34375l-1.171875 0zm-1.71875 8.203125l1.453125 -6.90625l1.171875 0l-1.4375 6.90625l-1.1875 0zm7.6798096 -0.859375q-0.625 0.53125 -1.1875 0.78125q-0.5625 0.234375 -1.203125 0.234375q-0.96875 0 -1.5625 -0.5625q-0.578125 -0.5625 -0.578125 -1.4375q0 -0.578125 0.265625 -1.015625q0.265625 -0.453125 0.703125 -0.71875q0.4375 -0.28125 1.0625 -0.390625q0.40625 -0.078125 1.515625 -0.125q1.109375 -0.046875 1.59375 -0.234375q0.125 -0.484375 0.125 -0.8125q0 -0.40625 -0.296875 -0.640625q-0.40625 -0.328125 -1.1875 -0.328125q-0.75 0 -1.21875 0.328125q-0.46875 0.328125 -0.6875 0.9375l-1.1875 -0.109375q0.359375 -1.015625 1.140625 -1.5625q0.796875 -0.546875 2.0 -0.546875q1.28125 0 2.03125 0.609375q0.578125 0.453125 0.578125 1.1875q0 0.546875 -0.15625 1.28125l-0.390625 1.71875q-0.1875 0.8125 -0.1875 1.328125q0 0.328125 0.15625 0.9375l-1.203125 0q-0.09375 -0.34375 -0.125 -0.859375zm0.421875 -2.640625q-0.234375 0.09375 -0.53125 0.15625q-0.28125 0.046875 -0.9375 0.109375q-1.03125 0.078125 -1.453125 0.21875q-0.421875 0.140625 -0.640625 0.453125q-0.21875 0.296875 -0.21875 0.671875q0 0.5 0.34375 0.828125q0.34375 0.3125 0.984375 0.3125q0.578125 0 1.109375 -0.3125q0.546875 -0.3125 0.859375 -0.859375q0.3125 -0.5625 0.484375 -1.578125zm2.2249756 3.5l2.0 -9.546875l1.171875 0l-1.984375 9.546875l-1.1875 0z" fill-rule="nonzero" />
      <path fill="#000000" d="m618.41785 231.10327l1.171875 0.125q-0.4375 1.296875 -1.265625 1.921875q-0.8125 0.625 -1.84375 0.625q-1.140625 0 -1.84375 -0.71875q-0.6875 -0.734375 -0.6875 -2.046875q0 -1.125 0.4375 -2.21875q0.453125 -1.09375 1.28125 -1.65625q0.84375 -0.578125 1.921875 -0.578125q1.109375 0 1.765625 0.625q0.65625 0.625 0.65625 1.65625l-1.15625 0.078125q-0.015625 -0.65625 -0.390625 -1.015625q-0.375 -0.375 -0.984375 -0.375q-0.703125 0 -1.234375 0.453125q-0.515625 0.4375 -0.8125 1.359375q-0.296875 0.90625 -0.296875 1.75q0 0.890625 0.390625 1.34375q0.390625 0.4375 0.96875 0.4375q0.5625 0 1.078125 -0.4375q0.53125 -0.4375 0.84375 -1.328125zm2.1015625 -0.109375q0 -2.015625 1.1875 -3.34375q0.984375 -1.09375 2.578125 -1.09375q1.25 0 2.015625 0.78125q0.765625 0.78125 0.765625 2.109375q0 1.1875 -0.484375 2.21875q-0.484375 1.015625 -1.375 1.5625q-0.890625 0.546875 -1.875 0.546875q-0.796875 0 -1.46875 -0.34375q-0.65625 -0.34375 -1.0 -0.96875q-0.34375 -0.640625 -0.34375 -1.46875zm1.171875 -0.109375q0 0.96875 0.46875 1.484375q0.46875 0.5 1.1875 0.5q0.375 0 0.75 -0.15625q0.375 -0.15625 0.6875 -0.46875q0.328125 -0.3125 0.546875 -0.703125q0.21875 -0.40625 0.359375 -0.875q0.203125 -0.640625 0.203125 -1.234375q0 -0.9375 -0.46875 -1.453125q-0.46875 -0.515625 -1.1875 -0.515625q-0.5625 0 -1.015625 0.265625q-0.453125 0.265625 -0.828125 0.78125q-0.359375 0.5 -0.53125 1.171875q-0.171875 0.671875 -0.171875 1.203125zm10.740601 1.484375q-1.234375 1.40625 -2.546875 1.40625q-0.796875 0 -1.296875 -0.453125q-0.484375 -0.46875 -0.484375 -1.125q0 -0.4375 0.21875 -1.5l0.84375 -3.984375l1.171875 0l-0.921875 4.40625q-0.109375 0.5625 -0.109375 0.859375q0 0.390625 0.234375 0.609375q0.234375 0.21875 0.703125 0.21875q0.484375 0 0.953125 -0.234375q0.484375 -0.234375 0.8125 -0.640625q0.34375 -0.421875 0.5625 -0.984375q0.140625 -0.359375 0.328125 -1.25l0.625 -2.984375l1.1875 0l-1.453125 6.90625l-1.078125 0l0.25 -1.25zm2.6937256 1.25l1.453125 -6.90625l1.0625 0l-0.25 1.203125q0.6875 -0.71875 1.296875 -1.03125q0.609375 -0.328125 1.234375 -0.328125q0.84375 0 1.3125 0.453125q0.484375 0.453125 0.484375 1.21875q0 0.375 -0.171875 1.203125l-0.875 4.1875l-1.171875 0l0.921875 -4.375q0.125 -0.640625 0.125 -0.953125q0 -0.34375 -0.234375 -0.546875q-0.234375 -0.21875 -0.6875 -0.21875q-0.90625 0 -1.609375 0.65625q-0.703125 0.640625 -1.03125 2.21875l-0.671875 3.21875l-1.1875 0zm10.178101 -0.953125l-0.203125 0.953125q-0.421875 0.109375 -0.8125 0.109375q-0.703125 0 -1.125 -0.34375q-0.3125 -0.25 -0.3125 -0.703125q0 -0.234375 0.171875 -1.046875l0.828125 -4.015625l-0.921875 0l0.1875 -0.90625l0.9375 0l0.34375 -1.703125l1.359375 -0.8125l-0.53125 2.515625l1.15625 0l-0.1875 0.90625l-1.15625 0l-0.796875 3.8125q-0.15625 0.734375 -0.15625 0.875q0 0.21875 0.109375 0.328125q0.125 0.109375 0.40625 0.109375q0.390625 0 0.703125 -0.078125z" fill-rule="nonzero" />
      <path fill="#ffffff" d="m130.38321 107.52231l41.417313 0l0 37.007874l-41.417313 0z" fill-rule="evenodd" />
      <path stroke="#595959" stroke-width="1.0" stroke-linejoin="round" stroke-linecap="butt" d="m130.38321 107.52231l41.417313 0l0 37.007874l-41.417313 0z" fill-rule="evenodd" />
      <path fill="#ffffff" d="m167.52756 107.52231l121.41733 0l0 37.007874l-121.41733 0z" fill-rule="evenodd" />
      <path stroke="#595959" stroke-width="1.0" stroke-linejoin="round" stroke-linecap="butt" d="m167.52756 107.52231l121.41733 0l0 37.007874l-121.41733 0z" fill-rule="evenodd" />
      <path fill="#000000" d="m222.14876 132.94624l0 -1.875l1.875 0l0 1.875l-1.875 0zm5.183304 0l0 -1.875l1.875 0l0 1.875l-1.875 0zm5.183304 0l0 -1.875l1.875 0l0 1.875l-1.875 0z" fill-rule="nonzero" />
      <path fill="#ffffff" d="m288.9449 107.52231l41.417328 0l0 37.007874l-41.417328 0z" fill-rule="evenodd" />
      <path stroke="#595959" stroke-width="1.0" stroke-linejoin="round" stroke-linecap="butt" d="m288.9449 107.52231l41.417328 0l0 37.007874l-41.417328 0z" fill-rule="evenodd" />
      <path fill="#ffffff" d="m330.3622 107.52231l129.41733 0l0 37.007874l-129.41733 0z" fill-rule="evenodd" />
      <path stroke="#595959" stroke-width="1.0" stroke-linejoin="round" stroke-linecap="butt" d="m330.3622 107.52231l129.41733 0l0 37.007874l-129.41733 0z" fill-rule="evenodd" />
      <path fill="#000000" d="m388.9834 132.94624l0 -1.875l1.875 0l0 1.875l-1.875 0zm5.183319 0l0 -1.875l1.875 0l0 1.875l-1.875 0zm5.1832886 0l0 -1.875l1.875 0l0 1.875l-1.875 0z" fill-rule="nonzero" />
      <path fill="#ffffff" d="m459.77954 107.52231l41.417297 0l0 37.007874l-41.417297 0z" fill-rule="evenodd" />
      <path stroke="#595959" stroke-width="1.0" stroke-linejoin="round" stroke-linecap="butt" d="m459.77954 107.52231l41.417297 0l0 37.007874l-41.417297 0z" fill-rule="evenodd" />
      <path fill="#ffffff" d="m503.75854 107.52231l106.58264 0l0 37.007874l-106.58264 0z" fill-rule="evenodd" />
      <path stroke="#595959" stroke-width="1.0" stroke-linejoin="round" stroke-linecap="butt" d="m503.75854 107.52231l106.58264 0l0 37.007874l-106.58264 0z" fill-rule="evenodd" />
      <path fill="#ffffff" d="m610.3412 107.52231l41.41736 0l0 37.007874l-41.41736 0z" fill-rule="evenodd" />
      <path stroke="#595959" stroke-width="1.0" stroke-linejoin="round" stroke-linecap="butt" d="m610.3412 107.52231l41.41736 0l0 37.007874l-41.41736 0z" fill-rule="evenodd" />
      <path fill="#ffffff" d="m651.75854 107.52231l41.417297 0l0 37.007874l-41.417297 0z" fill-rule="evenodd" />
      <path stroke="#595959" stroke-width="1.0" stroke-linejoin="round" stroke-linecap="butt" d="m651.75854 107.52231l41.417297 0l0 37.007874l-41.417297 0z" fill-rule="evenodd" />
      <path fill="#000000" fill-opacity="0.0" d="m130.38321 74.92913l37.13385 0l0 59.21261l-37.13385 0z" fill-rule="evenodd" />
      <path fill="#000000" fill-opacity="0.0" d="m130.30446 74.92913l25.574814 0l0 37.007874l-25.574814 0z" fill-rule="evenodd" />
      <path fill="#000000" d="m140.08571 95.25538q0 -2.359375 0.484375 -3.796875q0.484375 -1.453125 1.4375 -2.234375q0.96875 -0.78125 2.421875 -0.78125q1.078125 0 1.890625 0.4375q0.8125 0.421875 1.328125 1.25q0.53125 0.8125 0.828125 1.984375q0.3125 1.15625 0.3125 3.140625q0 2.359375 -0.484375 3.8125q-0.484375 1.4375 -1.453125 2.234375q-0.953125 0.78125 -2.421875 0.78125q-1.921875 0 -3.03125 -1.390625q-1.3125 -1.671875 -1.3125 -5.4375zm1.671875 0q0 3.296875 0.765625 4.390625q0.78125 1.078125 1.90625 1.078125q1.140625 0 1.90625 -1.09375q0.765625 -1.09375 0.765625 -4.375q0 -3.296875 -0.765625 -4.375q-0.765625 -1.078125 -1.921875 -1.078125q-1.125 0 -1.796875 0.953125q-0.859375 1.21875 -0.859375 4.5z" fill-rule="nonzero" />
      <path fill="#eeeeee" d="m294.2362 169.6273l15.417328 -15.417328l15.417328 15.417328l-7.7086487 0l0 15.417313l-15.417328 0l0 -15.417313z" fill-rule="evenodd" />
      <path stroke="#595959" stroke-width="1.0" stroke-linejoin="round" stroke-linecap="butt" d="m294.2362 169.6273l15.417328 -15.417328l15.417328 15.417328l-7.7086487 0l0 15.417313l-15.417328 0l0 -15.417313z" fill-rule="evenodd" />
      <path fill="#000000" fill-opacity="0.0" d="m253.71129 179.8189l148.62993 0l0 59.2126l-148.62993 0z" fill-rule="evenodd" />
      <path fill="#9900ff" d="m264.6644 201.6189l-1.078125 0l0 -9.546875l1.171875 0l0 3.40625q0.734375 -0.921875 1.890625 -0.921875q0.640625 0 1.203125 0.265625q0.578125 0.25 0.9375 0.71875q0.375 0.453125 0.578125 1.109375q0.203125 0.65625 0.203125 1.40625q0 1.78125 -0.875 2.75q-0.875 0.96875 -2.109375 0.96875q-1.21875 0 -1.921875 -1.015625l0 0.859375zm0 -3.5q0 1.234375 0.328125 1.78125q0.5625 0.90625 1.5 0.90625q0.765625 0 1.328125 -0.65625q0.5625 -0.671875 0.5625 -2.0q0 -1.34375 -0.546875 -1.984375q-0.53125 -0.65625 -1.296875 -0.65625q-0.765625 0 -1.328125 0.671875q-0.546875 0.671875 -0.546875 1.9375zm11.068726 1.28125l1.203125 0.140625q-0.28125 1.0625 -1.0625 1.65625q-0.765625 0.578125 -1.96875 0.578125q-1.515625 0 -2.40625 -0.9375q-0.890625 -0.9375 -0.890625 -2.609375q0 -1.75 0.890625 -2.703125q0.90625 -0.96875 2.34375 -0.96875q1.390625 0 2.265625 0.9375q0.875 0.9375 0.875 2.65625q0 0.109375 0 0.3125l-5.15625 0q0.0625 1.140625 0.640625 1.75q0.578125 0.59375 1.4375 0.59375q0.65625 0 1.109375 -0.328125q0.453125 -0.34375 0.71875 -1.078125zm-3.84375 -1.90625l3.859375 0q-0.078125 -0.859375 -0.4375 -1.296875q-0.5625 -0.6875 -1.453125 -0.6875q-0.8125 0 -1.359375 0.546875q-0.546875 0.53125 -0.609375 1.4375zm11.037476 1.59375l1.15625 0.15625q-0.1875 1.1875 -0.96875 1.859375q-0.78125 0.671875 -1.921875 0.671875q-1.40625 0 -2.28125 -0.921875q-0.859375 -0.9375 -0.859375 -2.65625q0 -1.125 0.375 -1.96875q0.375 -0.84375 1.125 -1.25q0.765625 -0.421875 1.65625 -0.421875q1.125 0 1.84375 0.578125q0.71875 0.5625 0.921875 1.609375l-1.140625 0.171875q-0.171875 -0.703125 -0.59375 -1.046875q-0.40625 -0.359375 -0.984375 -0.359375q-0.890625 0 -1.453125 0.640625q-0.546875 0.640625 -0.546875 2.0q0 1.40625 0.53125 2.03125q0.546875 0.625 1.40625 0.625q0.6875 0 1.140625 -0.421875q0.46875 -0.421875 0.59375 -1.296875zm1.7109375 -0.921875q0 -1.921875 1.078125 -2.84375q0.890625 -0.765625 2.171875 -0.765625q1.421875 0 2.328125 0.9375q0.90625 0.921875 0.90625 2.578125q0 1.328125 -0.40625 2.09375q-0.390625 0.765625 -1.15625 1.1875q-0.765625 0.421875 -1.671875 0.421875q-1.453125 0 -2.359375 -0.921875q-0.890625 -0.9375 -0.890625 -2.6875zm1.203125 0q0 1.328125 0.578125 1.984375q0.59375 0.65625 1.46875 0.65625q0.875 0 1.453125 -0.65625q0.578125 -0.671875 0.578125 -2.03125q0 -1.28125 -0.59375 -1.9375q-0.578125 -0.65625 -1.4375 -0.65625q-0.875 0 -1.46875 0.65625q-0.578125 0.65625 -0.578125 1.984375zm6.6468506 3.453125l0 -6.90625l1.046875 0l0 0.96875q0.328125 -0.515625 0.859375 -0.8125q0.546875 -0.3125 1.234375 -0.3125q0.78125 0 1.265625 0.3125q0.484375 0.3125 0.6875 0.890625q0.828125 -1.203125 2.140625 -1.203125q1.03125 0 1.578125 0.578125q0.5625 0.5625 0.5625 1.734375l0 4.75l-1.171875 0l0 -4.359375q0 -0.703125 -0.125 -1.0q-0.109375 -0.3125 -0.40625 -0.5q-0.296875 -0.1875 -0.703125 -0.1875q-0.71875 0 -1.203125 0.484375q-0.484375 0.484375 -0.484375 1.546875l0 4.015625l-1.171875 0l0 -4.484375q0 -0.78125 -0.296875 -1.171875q-0.28125 -0.390625 -0.921875 -0.390625q-0.5 0 -0.921875 0.265625q-0.421875 0.25 -0.609375 0.75q-0.1875 0.5 -0.1875 1.453125l0 3.578125l-1.171875 0zm15.8368225 -2.21875l1.203125 0.140625q-0.28125 1.0625 -1.0625 1.65625q-0.765625 0.578125 -1.96875 0.578125q-1.515625 0 -2.40625 -0.9375q-0.890625 -0.9375 -0.890625 -2.609375q0 -1.75 0.890625 -2.703125q0.90625 -0.96875 2.34375 -0.96875q1.390625 0 2.265625 0.9375q0.875 0.9375 0.875 2.65625q0 0.109375 0 0.3125l-5.15625 0q0.0625 1.140625 0.640625 1.75q0.578125 0.59375 1.4375 0.59375q0.65625 0 1.109375 -0.328125q0.453125 -0.34375 0.71875 -1.078125zm-3.84375 -1.90625l3.859375 0q-0.078125 -0.859375 -0.4375 -1.296875q-0.5625 -0.6875 -1.453125 -0.6875q-0.8125 0 -1.359375 0.546875q-0.546875 0.53125 -0.609375 1.4375zm6.2406006 1.0625l1.203125 -0.109375q0.078125 0.71875 0.390625 1.1875q0.3125 0.453125 0.953125 0.734375q0.65625 0.28125 1.46875 0.28125q0.71875 0 1.265625 -0.21875q0.5625 -0.21875 0.828125 -0.578125q0.265625 -0.375 0.265625 -0.828125q0 -0.453125 -0.265625 -0.78125q-0.25 -0.328125 -0.84375 -0.5625q-0.390625 -0.15625 -1.703125 -0.46875q-1.3125 -0.3125 -1.84375 -0.59375q-0.671875 -0.359375 -1.015625 -0.890625q-0.328125 -0.53125 -0.328125 -1.1875q0 -0.71875 0.40625 -1.34375q0.40625 -0.625 1.1875 -0.953125q0.796875 -0.328125 1.765625 -0.328125q1.046875 0 1.859375 0.34375q0.8125 0.34375 1.25 1.015625q0.4375 0.65625 0.46875 1.484375l-1.203125 0.09375q-0.109375 -0.90625 -0.671875 -1.359375q-0.5625 -0.46875 -1.65625 -0.46875q-1.140625 0 -1.671875 0.421875q-0.515625 0.421875 -0.515625 1.015625q0 0.515625 0.359375 0.84375q0.375 0.328125 1.90625 0.6875q1.546875 0.34375 2.109375 0.59375q0.84375 0.390625 1.234375 0.984375q0.390625 0.578125 0.390625 1.359375q0 0.75 -0.4375 1.4375q-0.421875 0.671875 -1.25 1.046875q-0.8125 0.359375 -1.828125 0.359375q-1.296875 0 -2.171875 -0.375q-0.875 -0.375 -1.375 -1.125q-0.5 -0.765625 -0.53125 -1.71875zm9.17099 5.71875l0 -9.5625l1.078125 0l0 0.890625q0.375 -0.53125 0.84375 -0.78125q0.484375 -0.265625 1.15625 -0.265625q0.875 0 1.546875 0.453125q0.6875 0.453125 1.03125 1.28125q0.34375 0.828125 0.34375 1.828125q0 1.046875 -0.375 1.90625q-0.375 0.84375 -1.109375 1.296875q-0.71875 0.453125 -1.53125 0.453125q-0.578125 0 -1.046875 -0.25q-0.46875 -0.25 -0.765625 -0.625l0 3.375l-1.171875 0zm1.0625 -6.078125q0 1.34375 0.53125 1.984375q0.546875 0.625 1.3125 0.625q0.78125 0 1.34375 -0.65625q0.5625 -0.65625 0.5625 -2.046875q0 -1.3125 -0.546875 -1.96875q-0.546875 -0.671875 -1.296875 -0.671875q-0.75 0 -1.328125 0.703125q-0.578125 0.703125 -0.578125 2.03125zm6.3343506 3.421875l0 -6.90625l1.0625 0l0 1.046875q0.40625 -0.734375 0.734375 -0.96875q0.34375 -0.234375 0.765625 -0.234375q0.59375 0 1.203125 0.375l-0.40625 1.078125q-0.4375 -0.25 -0.859375 -0.25q-0.390625 0 -0.703125 0.234375q-0.296875 0.234375 -0.421875 0.640625q-0.203125 0.625 -0.203125 1.359375l0 3.625l-1.171875 0zm9.188385 -2.21875l1.203125 0.140625q-0.28125 1.0625 -1.0625 1.65625q-0.765625 0.578125 -1.96875 0.578125q-1.515625 0 -2.40625 -0.9375q-0.890625 -0.9375 -0.890625 -2.609375q0 -1.75 0.890625 -2.703125q0.90625 -0.96875 2.34375 -0.96875q1.390625 0 2.265625 0.9375q0.875 0.9375 0.875 2.65625q0 0.109375 0 0.3125l-5.15625 0q0.0625 1.140625 0.640625 1.75q0.578125 0.59375 1.4375 0.59375q0.65625 0 1.109375 -0.328125q0.453125 -0.34375 0.71875 -1.078125zm-3.84375 -1.90625l3.859375 0q-0.078125 -0.859375 -0.4375 -1.296875q-0.5625 -0.6875 -1.453125 -0.6875q-0.8125 0 -1.359375 0.546875q-0.546875 0.53125 -0.609375 1.4375zm11.037476 3.265625q-0.65625 0.5625 -1.265625 0.796875q-0.59375 0.21875 -1.28125 0.21875q-1.140625 0 -1.75 -0.546875q-0.609375 -0.5625 -0.609375 -1.4375q0 -0.5 0.21875 -0.921875q0.234375 -0.421875 0.609375 -0.671875q0.375 -0.25 0.84375 -0.390625q0.34375 -0.078125 1.046875 -0.171875q1.421875 -0.171875 2.09375 -0.40625q0 -0.234375 0 -0.296875q0 -0.71875 -0.328125 -1.015625q-0.453125 -0.390625 -1.34375 -0.390625q-0.8125 0 -1.21875 0.296875q-0.390625 0.28125 -0.578125 1.015625l-1.140625 -0.15625q0.15625 -0.734375 0.515625 -1.1875q0.359375 -0.453125 1.03125 -0.6875q0.671875 -0.25 1.5625 -0.25q0.890625 0 1.4375 0.203125q0.5625 0.203125 0.8125 0.53125q0.265625 0.3125 0.375 0.796875q0.046875 0.296875 0.046875 1.078125l0 1.5625q0 1.625 0.078125 2.0625q0.078125 0.4375 0.296875 0.828125l-1.21875 0q-0.1875 -0.359375 -0.234375 -0.859375zm-0.09375 -2.609375q-0.640625 0.265625 -1.921875 0.4375q-0.71875 0.109375 -1.015625 0.25q-0.296875 0.125 -0.46875 0.375q-0.15625 0.25 -0.15625 0.546875q0 0.46875 0.34375 0.78125q0.359375 0.3125 1.046875 0.3125q0.671875 0 1.203125 -0.296875q0.53125 -0.296875 0.78125 -0.8125q0.1875 -0.390625 0.1875 -1.171875l0 -0.421875zm7.4749756 3.46875l0 -0.875q-0.65625 1.03125 -1.9375 1.03125q-0.8125 0 -1.515625 -0.453125q-0.6875 -0.453125 -1.078125 -1.265625q-0.375 -0.828125 -0.375 -1.890625q0 -1.03125 0.34375 -1.875q0.34375 -0.84375 1.03125 -1.28125q0.703125 -0.453125 1.546875 -0.453125q0.625 0 1.109375 0.265625q0.5 0.25 0.796875 0.671875l0 -3.421875l1.171875 0l0 9.546875l-1.09375 0zm-3.703125 -3.453125q0 1.328125 0.5625 1.984375q0.5625 0.65625 1.328125 0.65625q0.765625 0 1.296875 -0.625q0.53125 -0.625 0.53125 -1.90625q0 -1.421875 -0.546875 -2.078125q-0.546875 -0.671875 -1.34375 -0.671875q-0.78125 0 -1.3125 0.640625q-0.515625 0.625 -0.515625 2.0zm11.365601 1.234375l1.203125 0.140625q-0.28125 1.0625 -1.0625 1.65625q-0.765625 0.578125 -1.96875 0.578125q-1.515625 0 -2.40625 -0.9375q-0.890625 -0.9375 -0.890625 -2.609375q0 -1.75 0.890625 -2.703125q0.90625 -0.96875 2.34375 -0.96875q1.390625 0 2.265625 0.9375q0.875 0.9375 0.875 2.65625q0 0.109375 0 0.3125l-5.15625 0q0.0625 1.140625 0.640625 1.75q0.578125 0.59375 1.4375 0.59375q0.65625 0 1.109375 -0.328125q0.453125 -0.34375 0.71875 -1.078125zm-3.84375 -1.90625l3.859375 0q-0.078125 -0.859375 -0.4375 -1.296875q-0.5625 -0.6875 -1.453125 -0.6875q-0.8125 0 -1.359375 0.546875q-0.546875 0.53125 -0.609375 1.4375zm6.5062256 4.125l0 -6.90625l1.0625 0l0 1.046875q0.40625 -0.734375 0.734375 -0.96875q0.34375 -0.234375 0.765625 -0.234375q0.59375 0 1.203125 0.375l-0.40625 1.078125q-0.4375 -0.25 -0.859375 -0.25q-0.390625 0 -0.703125 0.234375q-0.296875 0.234375 -0.421875 0.640625q-0.203125 0.625 -0.203125 1.359375l0 3.625l-1.171875 0z" fill-rule="nonzero" />
      <path fill="#eeeeee" d="m464.32547 169.6273l15.417297 -15.417328l15.417328 15.417328l-7.7086487 0l0 15.417313l-15.417328 0l0 -15.417313z" fill-rule="evenodd" />
      <path stroke="#595959" stroke-width="1.0" stroke-linejoin="round" stroke-linecap="butt" d="m464.32547 169.6273l15.417297 -15.417328l15.417328 15.417328l-7.7086487 0l0 15.417313l-15.417328 0l0 -15.417313z" fill-rule="evenodd" />
      <path fill="#000000" fill-opacity="0.0" d="m423.80054 179.8189l129.4173 0l0 59.2126l-129.4173 0z" fill-rule="evenodd" />
      <path fill="#9900ff" d="m433.2068 199.5564l1.15625 -0.1875q0.109375 0.703125 0.546875 1.078125q0.453125 0.359375 1.25 0.359375q0.8125 0 1.203125 -0.328125q0.390625 -0.328125 0.390625 -0.765625q0 -0.390625 -0.359375 -0.625q-0.234375 -0.15625 -1.1875 -0.390625q-1.296875 -0.328125 -1.796875 -0.5625q-0.484375 -0.25 -0.75 -0.65625q-0.25 -0.421875 -0.25 -0.9375q0 -0.453125 0.203125 -0.84375q0.21875 -0.40625 0.578125 -0.671875q0.28125 -0.1875 0.75 -0.328125q0.46875 -0.140625 1.015625 -0.140625q0.8125 0 1.421875 0.234375q0.609375 0.234375 0.90625 0.640625q0.296875 0.390625 0.40625 1.0625l-1.140625 0.15625q-0.078125 -0.53125 -0.453125 -0.828125q-0.375 -0.3125 -1.0625 -0.3125q-0.8125 0 -1.15625 0.265625q-0.34375 0.265625 -0.34375 0.625q0 0.234375 0.140625 0.421875q0.15625 0.1875 0.453125 0.3125q0.171875 0.0625 1.03125 0.296875q1.25 0.328125 1.734375 0.546875q0.5 0.203125 0.78125 0.609375q0.28125 0.40625 0.28125 1.0q0 0.59375 -0.34375 1.109375q-0.34375 0.515625 -1.0 0.796875q-0.640625 0.28125 -1.453125 0.28125q-1.34375 0 -2.046875 -0.5625q-0.703125 -0.5625 -0.90625 -1.65625zm7.0859375 4.71875l-0.125 -1.09375q0.375 0.109375 0.65625 0.109375q0.390625 0 0.625 -0.140625q0.234375 -0.125 0.390625 -0.359375q0.109375 -0.171875 0.359375 -0.875q0.03125 -0.09375 0.109375 -0.28125l-2.625 -6.921875l1.265625 0l1.4375 4.0q0.28125 0.765625 0.5 1.59375q0.203125 -0.796875 0.46875 -1.578125l1.484375 -4.015625l1.171875 0l-2.625 7.015625q-0.421875 1.140625 -0.65625 1.578125q-0.3125 0.578125 -0.71875 0.84375q-0.40625 0.28125 -0.96875 0.28125q-0.328125 0 -0.75 -0.15625zm6.7109375 -2.65625l0 -6.90625l1.046875 0l0 0.96875q0.328125 -0.515625 0.859375 -0.8125q0.546875 -0.3125 1.234375 -0.3125q0.78125 0 1.265625 0.3125q0.484375 0.3125 0.6875 0.890625q0.828125 -1.203125 2.140625 -1.203125q1.03125 0 1.578125 0.578125q0.5625 0.5625 0.5625 1.734375l0 4.75l-1.171875 0l0 -4.359375q0 -0.703125 -0.125 -1.0q-0.109375 -0.3125 -0.40625 -0.5q-0.296875 -0.1875 -0.703125 -0.1875q-0.71875 0 -1.203125 0.484375q-0.484375 0.484375 -0.484375 1.546875l0 4.015625l-1.171875 0l0 -4.484375q0 -0.78125 -0.296875 -1.171875q-0.28125 -0.390625 -0.921875 -0.390625q-0.5 0 -0.921875 0.265625q-0.421875 0.25 -0.609375 0.75q-0.1875 0.5 -0.1875 1.453125l0 3.578125l-1.171875 0zm11.102417 2.65625l0 -9.5625l1.078125 0l0 0.890625q0.375 -0.53125 0.84375 -0.78125q0.484375 -0.265625 1.15625 -0.265625q0.875 0 1.546875 0.453125q0.6875 0.453125 1.03125 1.28125q0.34375 0.828125 0.34375 1.828125q0 1.046875 -0.375 1.90625q-0.375 0.84375 -1.109375 1.296875q-0.71875 0.453125 -1.53125 0.453125q-0.578125 0 -1.046875 -0.25q-0.46875 -0.25 -0.765625 -0.625l0 3.375l-1.171875 0zm1.0625 -6.078125q0 1.34375 0.53125 1.984375q0.546875 0.625 1.3125 0.625q0.78125 0 1.34375 -0.65625q0.5625 -0.65625 0.5625 -2.046875q0 -1.3125 -0.546875 -1.96875q-0.546875 -0.671875 -1.296875 -0.671875q-0.75 0 -1.328125 0.703125q-0.578125 0.703125 -0.578125 2.03125zm8.912476 2.375l0.171875 1.03125q-0.5 0.109375 -0.890625 0.109375q-0.640625 0 -1.0 -0.203125q-0.34375 -0.203125 -0.484375 -0.53125q-0.140625 -0.328125 -0.140625 -1.390625l0 -3.96875l-0.859375 0l0 -0.90625l0.859375 0l0 -1.71875l1.171875 -0.703125l0 2.421875l1.171875 0l0 0.90625l-1.171875 0l0 4.046875q0 0.5 0.046875 0.640625q0.0625 0.140625 0.203125 0.234375q0.140625 0.078125 0.40625 0.078125q0.203125 0 0.515625 -0.046875zm0.7030029 -2.40625q0 -1.921875 1.078125 -2.84375q0.890625 -0.765625 2.171875 -0.765625q1.421875 0 2.328125 0.9375q0.90625 0.921875 0.90625 2.578125q0 1.328125 -0.40625 2.09375q-0.390625 0.765625 -1.15625 1.1875q-0.765625 0.421875 -1.671875 0.421875q-1.453125 0 -2.359375 -0.921875q-0.890625 -0.9375 -0.890625 -2.6875zm1.203125 0q0 1.328125 0.578125 1.984375q0.59375 0.65625 1.46875 0.65625q0.875 0 1.453125 -0.65625q0.578125 -0.671875 0.578125 -2.03125q0 -1.28125 -0.59375 -1.9375q-0.578125 -0.65625 -1.4375 -0.65625q-0.875 0 -1.46875 0.65625q-0.578125 0.65625 -0.578125 1.984375zm6.6468506 3.453125l0 -6.90625l1.046875 0l0 0.96875q0.328125 -0.515625 0.859375 -0.8125q0.546875 -0.3125 1.234375 -0.3125q0.78125 0 1.265625 0.3125q0.484375 0.3125 0.6875 0.890625q0.828125 -1.203125 2.140625 -1.203125q1.03125 0 1.578125 0.578125q0.5625 0.5625 0.5625 1.734375l0 4.75l-1.171875 0l0 -4.359375q0 -0.703125 -0.125 -1.0q-0.109375 -0.3125 -0.40625 -0.5q-0.296875 -0.1875 -0.703125 -0.1875q-0.71875 0 -1.203125 0.484375q-0.484375 0.484375 -0.484375 1.546875l0 4.015625l-1.171875 0l0 -4.484375q0 -0.78125 -0.296875 -1.171875q-0.28125 -0.390625 -0.921875 -0.390625q-0.5 0 -0.921875 0.265625q-0.421875 0.25 -0.609375 0.75q-0.1875 0.5 -0.1875 1.453125l0 3.578125l-1.171875 0zm10.633667 -2.0625l1.15625 -0.1875q0.109375 0.703125 0.546875 1.078125q0.453125 0.359375 1.25 0.359375q0.8125 0 1.203125 -0.328125q0.390625 -0.328125 0.390625 -0.765625q0 -0.390625 -0.359375 -0.625q-0.234375 -0.15625 -1.1875 -0.390625q-1.296875 -0.328125 -1.796875 -0.5625q-0.484375 -0.25 -0.75 -0.65625q-0.25 -0.421875 -0.25 -0.9375q0 -0.453125 0.203125 -0.84375q0.21875 -0.40625 0.578125 -0.671875q0.28125 -0.1875 0.75 -0.328125q0.46875 -0.140625 1.015625 -0.140625q0.8125 0 1.421875 0.234375q0.609375 0.234375 0.90625 0.640625q0.296875 0.390625 0.40625 1.0625l-1.140625 0.15625q-0.078125 -0.53125 -0.453125 -0.828125q-0.375 -0.3125 -1.0625 -0.3125q-0.8125 0 -1.15625 0.265625q-0.34375 0.265625 -0.34375 0.625q0 0.234375 0.140625 0.421875q0.15625 0.1875 0.453125 0.3125q0.171875 0.0625 1.03125 0.296875q1.25 0.328125 1.734375 0.546875q0.5 0.203125 0.78125 0.609375q0.28125 0.40625 0.28125 1.0q0 0.59375 -0.34375 1.109375q-0.34375 0.515625 -1.0 0.796875q-0.640625 0.28125 -1.453125 0.28125q-1.34375 0 -2.046875 -0.5625q-0.703125 -0.5625 -0.90625 -1.65625zm6.2421875 2.0625l3.65625 -9.546875l1.359375 0l3.90625 9.546875l-1.4375 0l-1.109375 -2.890625l-3.984375 0l-1.046875 2.890625l-1.34375 0zm2.75 -3.921875l3.234375 0l-1.0 -2.640625q-0.453125 -1.203125 -0.671875 -1.96875q-0.1875 0.90625 -0.515625 1.8125l-1.046875 2.796875zm7.0303955 6.578125l0 -9.5625l1.078125 0l0 0.890625q0.375 -0.53125 0.84375 -0.78125q0.484375 -0.265625 1.15625 -0.265625q0.875 0 1.546875 0.453125q0.6875 0.453125 1.03125 1.28125q0.34375 0.828125 0.34375 1.828125q0 1.046875 -0.375 1.90625q-0.375 0.84375 -1.109375 1.296875q-0.71875 0.453125 -1.53125 0.453125q-0.578125 0 -1.046875 -0.25q-0.46875 -0.25 -0.765625 -0.625l0 3.375l-1.171875 0zm1.0625 -6.078125q0 1.34375 0.53125 1.984375q0.546875 0.625 1.3125 0.625q0.78125 0 1.34375 -0.65625q0.5625 -0.65625 0.5625 -2.046875q0 -1.3125 -0.546875 -1.96875q-0.546875 -0.671875 -1.296875 -0.671875q-0.75 0 -1.328125 0.703125q-0.578125 0.703125 -0.578125 2.03125zm6.3499756 6.078125l0 -9.5625l1.078125 0l0 0.890625q0.375 -0.53125 0.84375 -0.78125q0.484375 -0.265625 1.15625 -0.265625q0.875 0 1.546875 0.453125q0.6875 0.453125 1.03125 1.28125q0.34375 0.828125 0.34375 1.828125q0 1.046875 -0.375 1.90625q-0.375 0.84375 -1.109375 1.296875q-0.71875 0.453125 -1.53125 0.453125q-0.578125 0 -1.046875 -0.25q-0.46875 -0.25 -0.765625 -0.625l0 3.375l-1.171875 0zm1.0625 -6.078125q0 1.34375 0.53125 1.984375q0.546875 0.625 1.3125 0.625q0.78125 0 1.34375 -0.65625q0.5625 -0.65625 0.5625 -2.046875q0 -1.3125 -0.546875 -1.96875q-0.546875 -0.671875 -1.296875 -0.671875q-0.75 0 -1.328125 0.703125q-0.578125 0.703125 -0.578125 2.03125zm11.084351 1.203125l1.203125 0.140625q-0.28125 1.0625 -1.0625 1.65625q-0.765625 0.578125 -1.96875 0.578125q-1.515625 0 -2.40625 -0.9375q-0.890625 -0.9375 -0.890625 -2.609375q0 -1.75 0.890625 -2.703125q0.90625 -0.96875 2.34375 -0.96875q1.390625 0 2.265625 0.9375q0.875 0.9375 0.875 2.65625q0 0.109375 0 0.3125l-5.15625 0q0.0625 1.140625 0.640625 1.75q0.578125 0.59375 1.4375 0.59375q0.65625 0 1.109375 -0.328125q0.453125 -0.34375 0.71875 -1.078125zm-3.84375 -1.90625l3.859375 0q-0.078125 -0.859375 -0.4375 -1.296875q-0.5625 -0.6875 -1.453125 -0.6875q-0.8125 0 -1.359375 0.546875q-0.546875 0.53125 -0.609375 1.4375zm11.037476 3.265625q-0.65625 0.5625 -1.265625 0.796875q-0.59375 0.21875 -1.28125 0.21875q-1.140625 0 -1.75 -0.546875q-0.609375 -0.5625 -0.609375 -1.4375q0 -0.5 0.21875 -0.921875q0.234375 -0.421875 0.609375 -0.671875q0.375 -0.25 0.84375 -0.390625q0.34375 -0.078125 1.046875 -0.171875q1.421875 -0.171875 2.09375 -0.40625q0 -0.234375 0 -0.296875q0 -0.71875 -0.328125 -1.015625q-0.453125 -0.390625 -1.34375 -0.390625q-0.8125 0 -1.21875 0.296875q-0.390625 0.28125 -0.578125 1.015625l-1.140625 -0.15625q0.15625 -0.734375 0.515625 -1.1875q0.359375 -0.453125 1.03125 -0.6875q0.671875 -0.25 1.5625 -0.25q0.890625 0 1.4375 0.203125q0.5625 0.203125 0.8125 0.53125q0.265625 0.3125 0.375 0.796875q0.046875 0.296875 0.046875 1.078125l0 1.5625q0 1.625 0.078125 2.0625q0.078125 0.4375 0.296875 0.828125l-1.21875 0q-0.1875 -0.359375 -0.234375 -0.859375zm-0.09375 -2.609375q-0.640625 0.265625 -1.921875 0.4375q-0.71875 0.109375 -1.015625 0.25q-0.296875 0.125 -0.46875 0.375q-0.15625 0.25 -0.15625 0.546875q0 0.46875 0.34375 0.78125q0.359375 0.3125 1.046875 0.3125q0.671875 0 1.203125 -0.296875q0.53125 -0.296875 0.78125 -0.8125q0.1875 -0.390625 0.1875 -1.171875l0 -0.421875zm2.9749756 3.46875l0 -6.90625l1.0625 0l0 1.046875q0.40625 -0.734375 0.734375 -0.96875q0.34375 -0.234375 0.765625 -0.234375q0.59375 0 1.203125 0.375l-0.40625 1.078125q-0.4375 -0.25 -0.859375 -0.25q-0.390625 0 -0.703125 0.234375q-0.296875 0.234375 -0.421875 0.640625q-0.203125 0.625 -0.203125 1.359375l0 3.625l-1.171875 0z" fill-rule="nonzero" />
      <path fill="#000000" fill-opacity="0.0" d="m155.87927 93.874016l536.5354 -0.88188934" fill-rule="evenodd" />
      <path stroke="#595959" stroke-width="4.0" stroke-linejoin="round" stroke-linecap="butt" d="m179.87923 93.834564l488.53552 -0.80298615" fill-rule="evenodd" />
      <path fill="#595959" stroke="#595959" stroke-width="4.0" stroke-linecap="butt" d="m179.86838 87.227646l-18.14151 6.636757l18.163223 6.5770874z" fill-rule="evenodd" />
      <path fill="#595959" stroke="#595959" stroke-width="4.0" stroke-linecap="butt" d="m668.4256 99.6385l18.14148 -6.636757l-18.163208 -6.5770874z" fill-rule="evenodd" />
      <path fill="#000000" fill-opacity="0.0" d="m325.59055 67.90026l314.96066 0l0 47.622047l-314.96066 0z" fill-rule="evenodd" />
      <path fill="#9900ff" d="m338.8718 87.14026l0 -0.703125q-0.515625 0.828125 -1.546875 0.828125q-0.65625 0 -1.21875 -0.359375q-0.546875 -0.375 -0.859375 -1.015625q-0.296875 -0.65625 -0.296875 -1.5q0 -0.828125 0.28125 -1.5q0.28125 -0.6875 0.828125 -1.046875q0.546875 -0.359375 1.234375 -0.359375q0.5 0 0.890625 0.21875q0.390625 0.203125 0.625 0.546875l0 -2.734375l0.9375 0l0 7.625l-0.875 0zm-2.953125 -2.75q0 1.046875 0.4375 1.578125q0.453125 0.53125 1.0625 0.53125q0.609375 0 1.03125 -0.5q0.4375 -0.515625 0.4375 -1.53125q0 -1.140625 -0.4375 -1.671875q-0.4375 -0.53125 -1.078125 -0.53125q-0.609375 0 -1.03125 0.515625q-0.421875 0.5 -0.421875 1.609375zm8.910889 2.0625q-0.53125 0.453125 -1.015625 0.640625q-0.46875 0.171875 -1.015625 0.171875q-0.921875 0 -1.40625 -0.4375q-0.484375 -0.453125 -0.484375 -1.140625q0 -0.40625 0.171875 -0.734375q0.1875 -0.34375 0.484375 -0.546875q0.3125 -0.203125 0.6875 -0.3125q0.265625 -0.0625 0.828125 -0.140625q1.125 -0.125 1.671875 -0.3125q0 -0.203125 0 -0.25q0 -0.578125 -0.265625 -0.8125q-0.359375 -0.3125 -1.0625 -0.3125q-0.65625 0 -0.984375 0.234375q-0.3125 0.234375 -0.453125 0.8125l-0.921875 -0.125q0.125 -0.578125 0.40625 -0.9375q0.296875 -0.375 0.828125 -0.5625q0.546875 -0.203125 1.25 -0.203125q0.71875 0 1.15625 0.171875q0.4375 0.171875 0.640625 0.421875q0.21875 0.25 0.296875 0.640625q0.046875 0.234375 0.046875 0.859375l0 1.25q0 1.296875 0.0625 1.65625q0.0625 0.34375 0.234375 0.65625l-0.96875 0q-0.15625 -0.296875 -0.1875 -0.6875zm-0.078125 -2.078125q-0.515625 0.203125 -1.53125 0.34375q-0.578125 0.078125 -0.828125 0.1875q-0.234375 0.109375 -0.359375 0.3125q-0.125 0.1875 -0.125 0.4375q0 0.375 0.28125 0.625q0.28125 0.25 0.828125 0.25q0.53125 0 0.953125 -0.234375q0.421875 -0.234375 0.625 -0.65625q0.15625 -0.3125 0.15625 -0.9375l0 -0.328125zm2.3483582 4.890625l-0.09375 -0.875q0.296875 0.078125 0.53125 0.078125q0.3125 0 0.5 -0.109375q0.1875 -0.09375 0.3125 -0.28125q0.078125 -0.140625 0.28125 -0.703125q0.03125 -0.078125 0.078125 -0.21875l-2.09375 -5.546875l1.015625 0l1.140625 3.203125q0.234375 0.609375 0.40625 1.28125q0.15625 -0.640625 0.375 -1.265625l1.1875 -3.21875l0.9375 0l-2.109375 5.625q-0.328125 0.90625 -0.515625 1.25q-0.25 0.46875 -0.578125 0.6875q-0.3125 0.21875 -0.765625 0.21875q-0.265625 0 -0.609375 -0.125zm5.0 -3.78125l0.921875 -0.140625q0.078125 0.5625 0.4375 0.859375q0.359375 0.296875 1.0 0.296875q0.640625 0 0.953125 -0.265625q0.3125 -0.265625 0.3125 -0.625q0 -0.3125 -0.28125 -0.5q-0.1875 -0.125 -0.953125 -0.3125q-1.03125 -0.265625 -1.4375 -0.453125q-0.390625 -0.1875 -0.59375 -0.515625q-0.203125 -0.34375 -0.203125 -0.75q0 -0.359375 0.171875 -0.671875q0.171875 -0.328125 0.453125 -0.53125q0.21875 -0.15625 0.59375 -0.265625q0.390625 -0.125 0.8125 -0.125q0.65625 0 1.140625 0.1875q0.5 0.1875 0.734375 0.515625q0.234375 0.3125 0.3125 0.859375l-0.90625 0.125q-0.0625 -0.4375 -0.375 -0.671875q-0.296875 -0.234375 -0.828125 -0.234375q-0.65625 0 -0.9375 0.21875q-0.265625 0.203125 -0.265625 0.484375q0 0.1875 0.109375 0.328125q0.125 0.15625 0.359375 0.25q0.140625 0.0625 0.828125 0.25q1.0 0.265625 1.390625 0.4375q0.390625 0.15625 0.609375 0.484375q0.234375 0.3125 0.234375 0.796875q0 0.46875 -0.28125 0.890625q-0.265625 0.40625 -0.78125 0.640625q-0.515625 0.21875 -1.171875 0.21875q-1.078125 0 -1.640625 -0.4375q-0.5625 -0.453125 -0.71875 -1.34375zm5.515625 -2.0625q0 -1.890625 1.015625 -2.96875q1.03125 -1.078125 2.640625 -1.078125q1.046875 0 1.890625 0.515625q0.859375 0.5 1.296875 1.40625q0.453125 0.890625 0.453125 2.046875q0 1.15625 -0.46875 2.078125q-0.46875 0.90625 -1.328125 1.375q-0.859375 0.46875 -1.859375 0.46875q-1.078125 0 -1.921875 -0.515625q-0.84375 -0.515625 -1.28125 -1.40625q-0.4375 -0.90625 -0.4375 -1.921875zm1.046875 0.015625q0 1.375 0.734375 2.171875q0.734375 0.796875 1.859375 0.796875q1.140625 0 1.875 -0.796875q0.734375 -0.8125 0.734375 -2.28125q0 -0.921875 -0.3125 -1.609375q-0.3125 -0.703125 -0.921875 -1.078125q-0.609375 -0.390625 -1.359375 -0.390625q-1.078125 0 -1.84375 0.734375q-0.765625 0.734375 -0.765625 2.453125zm7.648163 3.703125l0 -4.796875l-0.828125 0l0 -0.734375l0.828125 0l0 -0.578125q0 -0.5625 0.109375 -0.828125q0.125 -0.375 0.46875 -0.59375q0.34375 -0.234375 0.953125 -0.234375q0.390625 0 0.875 0.09375l-0.140625 0.828125q-0.296875 -0.0625 -0.546875 -0.0625q-0.421875 0 -0.609375 0.1875q-0.171875 0.1875 -0.171875 0.6875l0 0.5l1.078125 0l0 0.734375l-1.078125 0l0 4.796875l-0.9375 0zm2.5231323 -2.453125l0.953125 -0.078125q0.0625 0.5625 0.3125 0.9375q0.25 0.359375 0.765625 0.59375q0.515625 0.21875 1.171875 0.21875q0.578125 0 1.015625 -0.171875q0.4375 -0.171875 0.65625 -0.46875q0.21875 -0.296875 0.21875 -0.65625q0 -0.359375 -0.21875 -0.625q-0.203125 -0.265625 -0.671875 -0.4375q-0.3125 -0.125 -1.359375 -0.375q-1.046875 -0.25 -1.46875 -0.484375q-0.546875 -0.28125 -0.828125 -0.703125q-0.265625 -0.421875 -0.265625 -0.953125q0 -0.578125 0.328125 -1.078125q0.328125 -0.5 0.953125 -0.765625q0.640625 -0.265625 1.40625 -0.265625q0.84375 0 1.484375 0.28125q0.65625 0.265625 1.0 0.796875q0.359375 0.53125 0.390625 1.203125l-0.96875 0.078125q-0.078125 -0.71875 -0.53125 -1.09375q-0.453125 -0.375 -1.328125 -0.375q-0.921875 0 -1.34375 0.34375q-0.40625 0.328125 -0.40625 0.8125q0 0.40625 0.296875 0.671875q0.28125 0.265625 1.515625 0.546875q1.234375 0.28125 1.6875 0.484375q0.671875 0.3125 0.984375 0.78125q0.3125 0.46875 0.3125 1.078125q0 0.609375 -0.34375 1.15625q-0.34375 0.53125 -1.0 0.828125q-0.65625 0.296875 -1.46875 0.296875q-1.046875 0 -1.75 -0.296875q-0.6875 -0.296875 -1.09375 -0.90625q-0.390625 -0.609375 -0.40625 -1.375zm7.3263855 -4.09375l0 -1.078125l0.9375 0l0 1.078125l-0.9375 0zm0 6.546875l0 -5.53125l0.9375 0l0 5.53125l-0.9375 0zm5.9768677 -2.03125l0.921875 0.125q-0.15625 0.953125 -0.78125 1.5q-0.625 0.53125 -1.53125 0.53125q-1.125 0 -1.8125 -0.734375q-0.6875 -0.75 -0.6875 -2.125q0 -0.90625 0.296875 -1.578125q0.296875 -0.671875 0.890625 -1.0q0.609375 -0.34375 1.328125 -0.34375q0.890625 0 1.46875 0.46875q0.578125 0.453125 0.734375 1.28125l-0.90625 0.140625q-0.140625 -0.546875 -0.46875 -0.828125q-0.328125 -0.28125 -0.796875 -0.28125q-0.703125 0 -1.15625 0.515625q-0.4375 0.5 -0.4375 1.59375q0 1.109375 0.421875 1.625q0.4375 0.5 1.125 0.5q0.546875 0 0.90625 -0.34375q0.375 -0.34375 0.484375 -1.046875zm1.71875 2.03125l0 -7.625l0.9375 0l0 4.34375l2.21875 -2.25l1.21875 0l-2.125 2.0625l2.328125 3.46875l-1.15625 0l-1.8125 -2.828125l-0.671875 0.640625l0 2.1875l-0.9375 0zm5.328125 0l0 -5.53125l0.84375 0l0 0.796875q0.609375 -0.921875 1.75 -0.921875q0.5 0 0.921875 0.1875q0.421875 0.171875 0.625 0.46875q0.21875 0.296875 0.296875 0.6875q0.046875 0.265625 0.046875 0.921875l0 3.390625l-0.9375 0l0 -3.359375q0 -0.578125 -0.109375 -0.859375q-0.109375 -0.28125 -0.390625 -0.453125q-0.265625 -0.171875 -0.640625 -0.171875q-0.59375 0 -1.03125 0.390625q-0.4375 0.375 -0.4375 1.4375l0 3.015625l-0.9375 0zm9.707733 -1.78125l0.96875 0.125q-0.234375 0.84375 -0.859375 1.3125q-0.609375 0.46875 -1.578125 0.46875q-1.203125 0 -1.921875 -0.75q-0.703125 -0.75 -0.703125 -2.09375q0 -1.390625 0.71875 -2.15625q0.71875 -0.78125 1.859375 -0.78125q1.109375 0 1.8125 0.765625q0.703125 0.75 0.703125 2.125q0 0.078125 0 0.234375l-4.125 0q0.046875 0.921875 0.515625 1.40625q0.46875 0.484375 1.15625 0.484375q0.515625 0 0.875 -0.265625q0.359375 -0.28125 0.578125 -0.875zm-3.078125 -1.515625l3.09375 0q-0.0625 -0.6875 -0.359375 -1.046875q-0.453125 -0.53125 -1.15625 -0.53125q-0.640625 0 -1.09375 0.4375q-0.4375 0.421875 -0.484375 1.140625zm4.8483887 1.640625l0.921875 -0.140625q0.078125 0.5625 0.4375 0.859375q0.359375 0.296875 1.0 0.296875q0.640625 0 0.953125 -0.265625q0.3125 -0.265625 0.3125 -0.625q0 -0.3125 -0.28125 -0.5q-0.1875 -0.125 -0.953125 -0.3125q-1.03125 -0.265625 -1.4375 -0.453125q-0.390625 -0.1875 -0.59375 -0.515625q-0.203125 -0.34375 -0.203125 -0.75q0 -0.359375 0.171875 -0.671875q0.171875 -0.328125 0.453125 -0.53125q0.21875 -0.15625 0.59375 -0.265625q0.390625 -0.125 0.8125 -0.125q0.65625 0 1.140625 0.1875q0.5 0.1875 0.734375 0.515625q0.234375 0.3125 0.3125 0.859375l-0.90625 0.125q-0.0625 -0.4375 -0.375 -0.671875q-0.296875 -0.234375 -0.828125 -0.234375q-0.65625 0 -0.9375 0.21875q-0.265625 0.203125 -0.265625 0.484375q0 0.1875 0.109375 0.328125q0.125 0.15625 0.359375 0.25q0.140625 0.0625 0.828125 0.25q1.0 0.265625 1.390625 0.4375q0.390625 0.15625 0.609375 0.484375q0.234375 0.3125 0.234375 0.796875q0 0.46875 -0.28125 0.890625q-0.265625 0.40625 -0.78125 0.640625q-0.515625 0.21875 -1.171875 0.21875q-1.078125 0 -1.640625 -0.4375q-0.5625 -0.453125 -0.71875 -1.34375zm5.328125 0l0.921875 -0.140625q0.078125 0.5625 0.4375 0.859375q0.359375 0.296875 1.0 0.296875q0.640625 0 0.953125 -0.265625q0.3125 -0.265625 0.3125 -0.625q0 -0.3125 -0.28125 -0.5q-0.1875 -0.125 -0.953125 -0.3125q-1.03125 -0.265625 -1.4375 -0.453125q-0.390625 -0.1875 -0.59375 -0.515625q-0.203125 -0.34375 -0.203125 -0.75q0 -0.359375 0.171875 -0.671875q0.171875 -0.328125 0.453125 -0.53125q0.21875 -0.15625 0.59375 -0.265625q0.390625 -0.125 0.8125 -0.125q0.65625 0 1.140625 0.1875q0.5 0.1875 0.734375 0.515625q0.234375 0.3125 0.3125 0.859375l-0.90625 0.125q-0.0625 -0.4375 -0.375 -0.671875q-0.296875 -0.234375 -0.828125 -0.234375q-0.65625 0 -0.9375 0.21875q-0.265625 0.203125 -0.265625 0.484375q0 0.1875 0.109375 0.328125q0.125 0.15625 0.359375 0.25q0.140625 0.0625 0.828125 0.25q1.0 0.265625 1.390625 0.4375q0.390625 0.15625 0.609375 0.484375q0.234375 0.3125 0.234375 0.796875q0 0.46875 -0.28125 0.890625q-0.265625 0.40625 -0.78125 0.640625q-0.515625 0.21875 -1.171875 0.21875q-1.078125 0 -1.640625 -0.4375q-0.5625 -0.453125 -0.71875 -1.34375z" fill-rule="nonzero" />
      <path fill="#000000" fill-opacity="0.0" d="m302.2546 110.46719l265.07083 1.3228302" fill-rule="evenodd" />
      <path stroke="#595959" stroke-width="4.0" stroke-linejoin="round" stroke-linecap="butt" d="m326.25427 110.58696l217.07147 1.0832977" fill-rule="evenodd" />
      <path fill="#595959" stroke="#595959" stroke-width="4.0" stroke-linecap="butt" d="m326.28726 103.98012l-18.18512 6.5162582l18.119171 6.6974335z" fill-rule="evenodd" />
      <path fill="#595959" stroke="#595959" stroke-width="4.0" stroke-linecap="butt" d="m543.2928 118.2771l18.18512 -6.5162582l-18.119202 -6.6974335z" fill-rule="evenodd" />
      <path fill="#000000" fill-opacity="0.0" d="m365.51974 103.99866l314.96066 0l0 47.62204l-314.96066 0z" fill-rule="evenodd" />
      <path fill="#9900ff" d="m378.801 123.238655l0 -0.703125q-0.515625 0.828125 -1.546875 0.828125q-0.65625 0 -1.21875 -0.359375q-0.546875 -0.375 -0.859375 -1.015625q-0.296875 -0.65625 -0.296875 -1.5q0 -0.828125 0.28125 -1.5q0.28125 -0.6875 0.828125 -1.046875q0.546875 -0.359375 1.234375 -0.359375q0.5 0 0.890625 0.21875q0.390625 0.203125 0.625 0.546875l0 -2.734375l0.9375 0l0 7.625l-0.875 0zm-2.953125 -2.75q0 1.046875 0.4375 1.578125q0.453125 0.53125 1.0625 0.53125q0.609375 0 1.03125 -0.5q0.4375 -0.515625 0.4375 -1.53125q0 -1.140625 -0.4375 -1.671875q-0.4375 -0.53125 -1.078125 -0.53125q-0.609375 0 -1.03125 0.515625q-0.421875 0.5 -0.421875 1.609375zm8.910889 2.0625q-0.53125 0.453125 -1.015625 0.640625q-0.46875 0.171875 -1.015625 0.171875q-0.921875 0 -1.40625 -0.4375q-0.484375 -0.453125 -0.484375 -1.140625q0 -0.40625 0.171875 -0.734375q0.1875 -0.34375 0.484375 -0.546875q0.3125 -0.203125 0.6875 -0.3125q0.265625 -0.0625 0.828125 -0.140625q1.125 -0.125 1.671875 -0.3125q0 -0.203125 0 -0.25q0 -0.578125 -0.265625 -0.8125q-0.359375 -0.3125 -1.0625 -0.3125q-0.65625 0 -0.984375 0.234375q-0.3125 0.234375 -0.453125 0.8125l-0.921875 -0.125q0.125 -0.578125 0.40625 -0.9375q0.296875 -0.375 0.828125 -0.5625q0.546875 -0.203125 1.25 -0.203125q0.71875 0 1.15625 0.171875q0.4375 0.171875 0.640625 0.421875q0.21875 0.25 0.296875 0.640625q0.046875 0.234375 0.046875 0.859375l0 1.25q0 1.296875 0.0625 1.65625q0.0625 0.34375 0.234375 0.65625l-0.96875 0q-0.15625 -0.296875 -0.1875 -0.6875zm-0.078125 -2.078125q-0.515625 0.203125 -1.53125 0.34375q-0.578125 0.078125 -0.828125 0.1875q-0.234375 0.109375 -0.359375 0.3125q-0.125 0.1875 -0.125 0.4375q0 0.375 0.28125 0.625q0.28125 0.25 0.828125 0.25q0.53125 0 0.953125 -0.234375q0.421875 -0.234375 0.625 -0.65625q0.15625 -0.3125 0.15625 -0.9375l0 -0.328125zm2.3483582 4.890625l-0.09375 -0.875q0.296875 0.078125 0.53125 0.078125q0.3125 0 0.5 -0.109375q0.1875 -0.09375 0.3125 -0.28125q0.078125 -0.140625 0.28125 -0.703125q0.03125 -0.078125 0.078125 -0.21875l-2.09375 -5.546875l1.015625 0l1.140625 3.203125q0.234375 0.609375 0.40625 1.28125q0.15625 -0.640625 0.375 -1.265625l1.1875 -3.21875l0.9375 0l-2.109375 5.625q-0.328125 0.90625 -0.515625 1.25q-0.25 0.46875 -0.578125 0.6875q-0.3125 0.21875 -0.765625 0.21875q-0.265625 0 -0.609375 -0.125zm5.0 -3.78125l0.921875 -0.140625q0.078125 0.5625 0.4375 0.859375q0.359375 0.296875 1.0 0.296875q0.640625 0 0.953125 -0.265625q0.3125 -0.265625 0.3125 -0.625q0 -0.3125 -0.28125 -0.5q-0.1875 -0.125 -0.953125 -0.3125q-1.03125 -0.265625 -1.4375 -0.453125q-0.390625 -0.1875 -0.59375 -0.515625q-0.203125 -0.34375 -0.203125 -0.75q0 -0.359375 0.171875 -0.671875q0.171875 -0.328125 0.453125 -0.53125q0.21875 -0.15625 0.59375 -0.265625q0.390625 -0.125 0.8125 -0.125q0.65625 0 1.140625 0.1875q0.5 0.1875 0.734375 0.515625q0.234375 0.3125 0.3125 0.859375l-0.90625 0.125q-0.0625 -0.4375 -0.375 -0.671875q-0.296875 -0.234375 -0.828125 -0.234375q-0.65625 0 -0.9375 0.21875q-0.265625 0.203125 -0.265625 0.484375q0 0.1875 0.109375 0.328125q0.125 0.15625 0.359375 0.25q0.140625 0.0625 0.828125 0.25q1.0 0.265625 1.390625 0.4375q0.390625 0.15625 0.609375 0.484375q0.234375 0.3125 0.234375 0.796875q0 0.46875 -0.28125 0.890625q-0.265625 0.40625 -0.78125 0.640625q-0.515625 0.21875 -1.171875 0.21875q-1.078125 0 -1.640625 -0.4375q-0.5625 -0.453125 -0.71875 -1.34375zm4.984375 1.65625l2.921875 -7.625l1.09375 0l3.125 7.625l-1.15625 0l-0.890625 -2.3125l-3.1875 0l-0.828125 2.3125l-1.078125 0zm2.203125 -3.125l2.578125 0l-0.796875 -2.125q-0.359375 -0.953125 -0.53125 -1.578125q-0.15625 0.734375 -0.421875 1.453125l-0.828125 2.25zm5.2482605 1.46875l0.921875 -0.140625q0.078125 0.5625 0.4375 0.859375q0.359375 0.296875 1.0 0.296875q0.640625 0 0.953125 -0.265625q0.3125 -0.265625 0.3125 -0.625q0 -0.3125 -0.28125 -0.5q-0.1875 -0.125 -0.953125 -0.3125q-1.03125 -0.265625 -1.4375 -0.453125q-0.390625 -0.1875 -0.59375 -0.515625q-0.203125 -0.34375 -0.203125 -0.75q0 -0.359375 0.171875 -0.671875q0.171875 -0.328125 0.453125 -0.53125q0.21875 -0.15625 0.59375 -0.265625q0.390625 -0.125 0.8125 -0.125q0.65625 0 1.140625 0.1875q0.5 0.1875 0.734375 0.515625q0.234375 0.3125 0.3125 0.859375l-0.90625 0.125q-0.0625 -0.4375 -0.375 -0.671875q-0.296875 -0.234375 -0.828125 -0.234375q-0.65625 0 -0.9375 0.21875q-0.265625 0.203125 -0.265625 0.484375q0 0.1875 0.109375 0.328125q0.125 0.15625 0.359375 0.25q0.140625 0.0625 0.828125 0.25q1.0 0.265625 1.390625 0.4375q0.390625 0.15625 0.609375 0.484375q0.234375 0.3125 0.234375 0.796875q0 0.46875 -0.28125 0.890625q-0.265625 0.40625 -0.78125 0.640625q-0.515625 0.21875 -1.171875 0.21875q-1.078125 0 -1.640625 -0.4375q-0.5625 -0.453125 -0.71875 -1.34375zm5.484375 -0.796875l0.953125 -0.078125q0.0625 0.5625 0.3125 0.9375q0.25 0.359375 0.765625 0.59375q0.515625 0.21875 1.171875 0.21875q0.578125 0 1.015625 -0.171875q0.4375 -0.171875 0.65625 -0.46875q0.21875 -0.296875 0.21875 -0.65625q0 -0.359375 -0.21875 -0.625q-0.203125 -0.265625 -0.671875 -0.4375q-0.3125 -0.125 -1.359375 -0.375q-1.046875 -0.25 -1.46875 -0.484375q-0.546875 -0.28125 -0.828125 -0.703125q-0.265625 -0.421875 -0.265625 -0.953125q0 -0.578125 0.328125 -1.078125q0.328125 -0.5 0.953125 -0.765625q0.640625 -0.265625 1.40625 -0.265625q0.84375 0 1.484375 0.28125q0.65625 0.265625 1.0 0.796875q0.359375 0.53125 0.390625 1.203125l-0.96875 0.078125q-0.078125 -0.71875 -0.53125 -1.09375q-0.453125 -0.375 -1.328125 -0.375q-0.921875 0 -1.34375 0.34375q-0.40625 0.328125 -0.40625 0.8125q0 0.40625 0.296875 0.671875q0.28125 0.265625 1.515625 0.546875q1.234375 0.28125 1.6875 0.484375q0.671875 0.3125 0.984375 0.78125q0.3125 0.46875 0.3125 1.078125q0 0.609375 -0.34375 1.15625q-0.34375 0.53125 -1.0 0.828125q-0.65625 0.296875 -1.46875 0.296875q-1.046875 0 -1.75 -0.296875q-0.6875 -0.296875 -1.09375 -0.90625q-0.390625 -0.609375 -0.40625 -1.375zm7.3263855 4.578125l0 -7.65625l0.859375 0l0 0.71875q0.296875 -0.421875 0.671875 -0.625q0.390625 -0.21875 0.921875 -0.21875q0.703125 0 1.25 0.375q0.546875 0.359375 0.8125 1.03125q0.28125 0.65625 0.28125 1.453125q0 0.84375 -0.3125 1.53125q-0.296875 0.671875 -0.875 1.03125q-0.578125 0.359375 -1.21875 0.359375q-0.46875 0 -0.84375 -0.1875q-0.375 -0.203125 -0.609375 -0.515625l0 2.703125l-0.9375 0zm0.84375 -4.859375q0 1.0625 0.4375 1.578125q0.4375 0.515625 1.046875 0.515625q0.625 0 1.0625 -0.53125q0.453125 -0.53125 0.453125 -1.640625q0 -1.046875 -0.4375 -1.578125q-0.4375 -0.53125 -1.046875 -0.53125q-0.59375 0 -1.0625 0.5625q-0.453125 0.5625 -0.453125 1.625zm5.0671387 2.734375l0 -5.53125l0.84375 0l0 0.84375q0.328125 -0.59375 0.59375 -0.78125q0.28125 -0.1875 0.609375 -0.1875q0.46875 0 0.953125 0.3125l-0.3125 0.859375q-0.34375 -0.203125 -0.6875 -0.203125q-0.3125 0 -0.5625 0.1875q-0.234375 0.1875 -0.34375 0.515625q-0.15625 0.5 -0.15625 1.09375l0 2.890625l-0.9375 0zm7.3454895 -1.78125l0.96875 0.125q-0.234375 0.84375 -0.859375 1.3125q-0.609375 0.46875 -1.578125 0.46875q-1.203125 0 -1.921875 -0.75q-0.703125 -0.75 -0.703125 -2.09375q0 -1.390625 0.71875 -2.15625q0.71875 -0.78125 1.859375 -0.78125q1.109375 0 1.8125 0.765625q0.703125 0.75 0.703125 2.125q0 0.078125 0 0.234375l-4.125 0q0.046875 0.921875 0.515625 1.40625q0.46875 0.484375 1.15625 0.484375q0.515625 0 0.875 -0.265625q0.359375 -0.28125 0.578125 -0.875zm-3.078125 -1.515625l3.09375 0q-0.0625 -0.6875 -0.359375 -1.046875q-0.453125 -0.53125 -1.15625 -0.53125q-0.640625 0 -1.09375 0.4375q-0.4375 0.421875 -0.484375 1.140625zm8.832733 2.609375q-0.53125 0.453125 -1.015625 0.640625q-0.46875 0.171875 -1.015625 0.171875q-0.921875 0 -1.40625 -0.4375q-0.484375 -0.453125 -0.484375 -1.140625q0 -0.40625 0.171875 -0.734375q0.1875 -0.34375 0.484375 -0.546875q0.3125 -0.203125 0.6875 -0.3125q0.265625 -0.0625 0.828125 -0.140625q1.125 -0.125 1.671875 -0.3125q0 -0.203125 0 -0.25q0 -0.578125 -0.265625 -0.8125q-0.359375 -0.3125 -1.0625 -0.3125q-0.65625 0 -0.984375 0.234375q-0.3125 0.234375 -0.453125 0.8125l-0.921875 -0.125q0.125 -0.578125 0.40625 -0.9375q0.296875 -0.375 0.828125 -0.5625q0.546875 -0.203125 1.25 -0.203125q0.71875 0 1.15625 0.171875q0.4375 0.171875 0.640625 0.421875q0.21875 0.25 0.296875 0.640625q0.046875 0.234375 0.046875 0.859375l0 1.25q0 1.296875 0.0625 1.65625q0.0625 0.34375 0.234375 0.65625l-0.96875 0q-0.15625 -0.296875 -0.1875 -0.6875zm-0.078125 -2.078125q-0.515625 0.203125 -1.53125 0.34375q-0.578125 0.078125 -0.828125 0.1875q-0.234375 0.109375 -0.359375 0.3125q-0.125 0.1875 -0.125 0.4375q0 0.375 0.28125 0.625q0.28125 0.25 0.828125 0.25q0.53125 0 0.953125 -0.234375q0.421875 -0.234375 0.625 -0.65625q0.15625 -0.3125 0.15625 -0.9375l0 -0.328125zm5.9733887 2.765625l0 -0.703125q-0.515625 0.828125 -1.546875 0.828125q-0.65625 0 -1.21875 -0.359375q-0.546875 -0.375 -0.859375 -1.015625q-0.296875 -0.65625 -0.296875 -1.5q0 -0.828125 0.28125 -1.5q0.28125 -0.6875 0.828125 -1.046875q0.546875 -0.359375 1.234375 -0.359375q0.5 0 0.890625 0.21875q0.390625 0.203125 0.625 0.546875l0 -2.734375l0.9375 0l0 7.625l-0.875 0zm-2.953125 -2.75q0 1.046875 0.4375 1.578125q0.453125 0.53125 1.0625 0.53125q0.609375 0 1.03125 -0.5q0.4375 -0.515625 0.4375 -1.53125q0 -1.140625 -0.4375 -1.671875q-0.4375 -0.53125 -1.078125 -0.53125q-0.609375 0 -1.03125 0.515625q-0.421875 0.5 -0.421875 1.609375zm9.082733 0.96875l0.96875 0.125q-0.234375 0.84375 -0.859375 1.3125q-0.609375 0.46875 -1.578125 0.46875q-1.203125 0 -1.921875 -0.75q-0.703125 -0.75 -0.703125 -2.09375q0 -1.390625 0.71875 -2.15625q0.71875 -0.78125 1.859375 -0.78125q1.109375 0 1.8125 0.765625q0.703125 0.75 0.703125 2.125q0 0.078125 0 0.234375l-4.125 0q0.046875 0.921875 0.515625 1.40625q0.46875 0.484375 1.15625 0.484375q0.515625 0 0.875 -0.265625q0.359375 -0.28125 0.578125 -0.875zm-3.078125 -1.515625l3.09375 0q-0.0625 -0.6875 -0.359375 -1.046875q-0.453125 -0.53125 -1.15625 -0.53125q-0.640625 0 -1.09375 0.4375q-0.4375 0.421875 -0.484375 1.140625zm5.2077637 3.296875l0 -5.53125l0.84375 0l0 0.84375q0.328125 -0.59375 0.59375 -0.78125q0.28125 -0.1875 0.609375 -0.1875q0.46875 0 0.953125 0.3125l-0.3125 0.859375q-0.34375 -0.203125 -0.6875 -0.203125q-0.3125 0 -0.5625 0.1875q-0.234375 0.1875 -0.34375 0.515625q-0.15625 0.5 -0.15625 1.09375l0 2.890625l-0.9375 0z" fill-rule="nonzero" />
      <path fill="#000000" fill-opacity="0.0" d="m496.55908 120.3832l121.41736 0l0 47.622047l-121.41736 0z" fill-rule="evenodd" />
      <path fill="#ff00ff" d="m509.87158 138.9357q-0.53125 0.453125 -1.015625 0.640625q-0.46875 0.171875 -1.015625 0.171875q-0.921875 0 -1.40625 -0.4375q-0.484375 -0.453125 -0.484375 -1.140625q0 -0.40625 0.171875 -0.734375q0.1875 -0.34375 0.484375 -0.546875q0.3125 -0.203125 0.6875 -0.3125q0.265625 -0.0625 0.828125 -0.140625q1.125 -0.125 1.671875 -0.3125q0 -0.203125 0 -0.25q0 -0.578125 -0.265625 -0.8125q-0.359375 -0.3125 -1.0625 -0.3125q-0.65625 0 -0.984375 0.234375q-0.3125 0.234375 -0.453125 0.8125l-0.921875 -0.125q0.125 -0.578125 0.40625 -0.9375q0.296875 -0.375 0.828125 -0.5625q0.546875 -0.203125 1.25 -0.203125q0.71875 0 1.15625 0.171875q0.4375 0.171875 0.640625 0.421875q0.21875 0.25 0.296875 0.640625q0.046875 0.234375 0.046875 0.859375l0 1.25q0 1.296875 0.0625 1.65625q0.0625 0.34375 0.234375 0.65625l-0.96875 0q-0.15625 -0.296875 -0.1875 -0.6875zm-0.078125 -2.078125q-0.515625 0.203125 -1.53125 0.34375q-0.578125 0.078125 -0.828125 0.1875q-0.234375 0.109375 -0.359375 0.3125q-0.125 0.1875 -0.125 0.4375q0 0.375 0.28125 0.625q0.28125 0.25 0.828125 0.25q0.53125 0 0.953125 -0.234375q0.421875 -0.234375 0.625 -0.65625q0.15625 -0.3125 0.15625 -0.9375l0 -0.328125zm5.9733887 2.765625l0 -0.703125q-0.515625 0.828125 -1.546875 0.828125q-0.65625 0 -1.21875 -0.359375q-0.546875 -0.375 -0.859375 -1.015625q-0.296875 -0.65625 -0.296875 -1.5q0 -0.828125 0.28125 -1.5q0.28125 -0.6875 0.828125 -1.046875q0.546875 -0.359375 1.234375 -0.359375q0.5 0 0.890625 0.21875q0.390625 0.203125 0.625 0.546875l0 -2.734375l0.9375 0l0 7.625l-0.875 0zm-2.953125 -2.75q0 1.046875 0.4375 1.578125q0.453125 0.53125 1.0625 0.53125q0.609375 0 1.03125 -0.5q0.4375 -0.515625 0.4375 -1.53125q0 -1.140625 -0.4375 -1.671875q-0.4375 -0.53125 -1.078125 -0.53125q-0.609375 0 -1.03125 0.515625q-0.421875 0.5 -0.421875 1.609375zm5.3015137 2.75l0 -5.53125l0.84375 0l0 0.78125q0.25 -0.40625 0.6875 -0.65625q0.4375 -0.25 0.984375 -0.25q0.609375 0 1.0 0.265625q0.390625 0.25 0.5625 0.703125q0.65625 -0.96875 1.703125 -0.96875q0.828125 0 1.265625 0.46875q0.4375 0.453125 0.4375 1.390625l0 3.796875l-0.921875 0l0 -3.484375q0 -0.5625 -0.09375 -0.796875q-0.09375 -0.25 -0.34375 -0.40625q-0.234375 -0.15625 -0.546875 -0.15625q-0.59375 0 -0.984375 0.390625q-0.375 0.390625 -0.375 1.25l0 3.203125l-0.9375 0l0 -3.59375q0 -0.625 -0.234375 -0.9375q-0.21875 -0.3125 -0.75 -0.3125q-0.390625 0 -0.734375 0.21875q-0.328125 0.203125 -0.484375 0.609375q-0.140625 0.390625 -0.140625 1.15625l0 2.859375l-0.9375 0zm8.876709 -6.546875l0 -1.078125l0.9375 0l0 1.078125l-0.9375 0zm0 6.546875l0 -5.53125l0.9375 0l0 5.53125l-0.9375 0zm2.3674927 0l0 -5.53125l0.84375 0l0 0.796875q0.609375 -0.921875 1.75 -0.921875q0.5 0 0.921875 0.1875q0.421875 0.171875 0.625 0.46875q0.21875 0.296875 0.296875 0.6875q0.046875 0.265625 0.046875 0.921875l0 3.390625l-0.9375 0l0 -3.359375q0 -0.578125 -0.109375 -0.859375q-0.109375 -0.28125 -0.390625 -0.453125q-0.265625 -0.171875 -0.640625 -0.171875q-0.59375 0 -1.03125 0.390625q-0.4375 0.375 -0.4375 1.4375l0 3.015625l-0.9375 0zm5.9265137 -6.546875l0 -1.078125l0.9375 0l0 1.078125l-0.9375 0zm0 6.546875l0 -5.53125l0.9375 0l0 5.53125l-0.9375 0zm1.9924316 -1.65625l0.921875 -0.140625q0.078125 0.5625 0.4375 0.859375q0.359375 0.296875 1.0 0.296875q0.640625 0 0.953125 -0.265625q0.3125 -0.265625 0.3125 -0.625q0 -0.3125 -0.28125 -0.5q-0.1875 -0.125 -0.953125 -0.3125q-1.03125 -0.265625 -1.4375 -0.453125q-0.390625 -0.1875 -0.59375 -0.515625q-0.203125 -0.34375 -0.203125 -0.75q0 -0.359375 0.171875 -0.671875q0.171875 -0.328125 0.453125 -0.53125q0.21875 -0.15625 0.59375 -0.265625q0.390625 -0.125 0.8125 -0.125q0.65625 0 1.140625 0.1875q0.5 0.1875 0.734375 0.515625q0.234375 0.3125 0.3125 0.859375l-0.90625 0.125q-0.0625 -0.4375 -0.375 -0.671875q-0.296875 -0.234375 -0.828125 -0.234375q-0.65625 0 -0.9375 0.21875q-0.265625 0.203125 -0.265625 0.484375q0 0.1875 0.109375 0.328125q0.125 0.15625 0.359375 0.25q0.140625 0.0625 0.828125 0.25q1.0 0.265625 1.390625 0.4375q0.390625 0.15625 0.609375 0.484375q0.234375 0.3125 0.234375 0.796875q0 0.46875 -0.28125 0.890625q-0.265625 0.40625 -0.78125 0.640625q-0.515625 0.21875 -1.171875 0.21875q-1.078125 0 -1.640625 -0.4375q-0.5625 -0.453125 -0.71875 -1.34375zm7.75 0.8125l0.125 0.828125q-0.390625 0.09375 -0.703125 0.09375q-0.5 0 -0.78125 -0.15625q-0.28125 -0.171875 -0.40625 -0.4375q-0.109375 -0.265625 -0.109375 -1.109375l0 -3.171875l-0.6875 0l0 -0.734375l0.6875 0l0 -1.359375l0.9375 -0.5625l0 1.921875l0.9375 0l0 0.734375l-0.9375 0l0 3.234375q0 0.390625 0.046875 0.515625q0.046875 0.109375 0.15625 0.1875q0.109375 0.0625 0.328125 0.0625q0.15625 0 0.40625 -0.046875zm0.89819336 0.84375l0 -5.53125l0.84375 0l0 0.84375q0.328125 -0.59375 0.59375 -0.78125q0.28125 -0.1875 0.609375 -0.1875q0.46875 0 0.953125 0.3125l-0.3125 0.859375q-0.34375 -0.203125 -0.6875 -0.203125q-0.3125 0 -0.5625 0.1875q-0.234375 0.1875 -0.34375 0.515625q-0.15625 0.5 -0.15625 1.09375l0 2.890625l-0.9375 0zm7.173584 -0.6875q-0.53125 0.453125 -1.015625 0.640625q-0.46875 0.171875 -1.015625 0.171875q-0.921875 0 -1.40625 -0.4375q-0.484375 -0.453125 -0.484375 -1.140625q0 -0.40625 0.171875 -0.734375q0.1875 -0.34375 0.484375 -0.546875q0.3125 -0.203125 0.6875 -0.3125q0.265625 -0.0625 0.828125 -0.140625q1.125 -0.125 1.671875 -0.3125q0 -0.203125 0 -0.25q0 -0.578125 -0.265625 -0.8125q-0.359375 -0.3125 -1.0625 -0.3125q-0.65625 0 -0.984375 0.234375q-0.3125 0.234375 -0.453125 0.8125l-0.921875 -0.125q0.125 -0.578125 0.40625 -0.9375q0.296875 -0.375 0.828125 -0.5625q0.546875 -0.203125 1.25 -0.203125q0.71875 0 1.15625 0.171875q0.4375 0.171875 0.640625 0.421875q0.21875 0.25 0.296875 0.640625q0.046875 0.234375 0.046875 0.859375l0 1.25q0 1.296875 0.0625 1.65625q0.0625 0.34375 0.234375 0.65625l-0.96875 0q-0.15625 -0.296875 -0.1875 -0.6875zm-0.078125 -2.078125q-0.515625 0.203125 -1.53125 0.34375q-0.578125 0.078125 -0.828125 0.1875q-0.234375 0.109375 -0.359375 0.3125q-0.125 0.1875 -0.125 0.4375q0 0.375 0.28125 0.625q0.28125 0.25 0.828125 0.25q0.53125 0 0.953125 -0.234375q0.421875 -0.234375 0.625 -0.65625q0.15625 -0.3125 0.15625 -0.9375l0 -0.328125zm4.4421387 1.921875l0.125 0.828125q-0.390625 0.09375 -0.703125 0.09375q-0.5 0 -0.78125 -0.15625q-0.28125 -0.171875 -0.40625 -0.4375q-0.109375 -0.265625 -0.109375 -1.109375l0 -3.171875l-0.6875 0l0 -0.734375l0.6875 0l0 -1.359375l0.9375 -0.5625l0 1.921875l0.9375 0l0 0.734375l-0.9375 0l0 3.234375q0 0.390625 0.046875 0.515625q0.046875 0.109375 0.15625 0.1875q0.109375 0.0625 0.328125 0.0625q0.15625 0 0.40625 -0.046875zm0.9137573 -5.703125l0 -1.078125l0.9375 0l0 1.078125l-0.9375 0zm0 6.546875l0 -5.53125l0.9375 0l0 5.53125l-0.9375 0zm3.8987427 0l-2.09375 -5.53125l0.984375 0l1.1875 3.3125q0.1875 0.53125 0.359375 1.109375q0.109375 -0.4375 0.34375 -1.046875l1.21875 -3.375l0.96875 0l-2.09375 5.53125l-0.875 0zm7.578125 -1.78125l0.96875 0.125q-0.234375 0.84375 -0.859375 1.3125q-0.609375 0.46875 -1.578125 0.46875q-1.203125 0 -1.921875 -0.75q-0.703125 -0.75 -0.703125 -2.09375q0 -1.390625 0.71875 -2.15625q0.71875 -0.78125 1.859375 -0.78125q1.109375 0 1.8125 0.765625q0.703125 0.75 0.703125 2.125q0 0.078125 0 0.234375l-4.125 0q0.046875 0.921875 0.515625 1.40625q0.46875 0.484375 1.15625 0.484375q0.515625 0 0.875 -0.265625q0.359375 -0.28125 0.578125 -0.875zm-3.078125 -1.515625l3.09375 0q-0.0625 -0.6875 -0.359375 -1.046875q-0.453125 -0.53125 -1.15625 -0.53125q-0.640625 0 -1.09375 0.4375q-0.4375 0.421875 -0.484375 1.140625zm5.3483887 3.296875l0 -7.625l2.625 0q0.890625 0 1.359375 0.109375q0.65625 0.140625 1.109375 0.546875q0.609375 0.5 0.90625 1.296875q0.296875 0.796875 0.296875 1.8125q0 0.875 -0.203125 1.546875q-0.203125 0.671875 -0.515625 1.109375q-0.3125 0.4375 -0.703125 0.6875q-0.375 0.25 -0.90625 0.390625q-0.53125 0.125 -1.21875 0.125l-2.75 0zm1.0 -0.90625l1.625 0q0.765625 0 1.1875 -0.140625q0.4375 -0.140625 0.6875 -0.390625q0.359375 -0.359375 0.5625 -0.953125q0.203125 -0.609375 0.203125 -1.484375q0 -1.1875 -0.40625 -1.828125q-0.390625 -0.65625 -0.953125 -0.875q-0.40625 -0.15625 -1.296875 -0.15625l-1.609375 0l0 5.828125zm10.351807 -0.875l0.96875 0.125q-0.234375 0.84375 -0.859375 1.3125q-0.609375 0.46875 -1.578125 0.46875q-1.203125 0 -1.921875 -0.75q-0.703125 -0.75 -0.703125 -2.09375q0 -1.390625 0.71875 -2.15625q0.71875 -0.78125 1.859375 -0.78125q1.109375 0 1.8125 0.765625q0.703125 0.75 0.703125 2.125q0 0.078125 0 0.234375l-4.125 0q0.046875 0.921875 0.515625 1.40625q0.46875 0.484375 1.15625 0.484375q0.515625 0 0.875 -0.265625q0.359375 -0.28125 0.578125 -0.875zm-3.078125 -1.515625l3.09375 0q-0.0625 -0.6875 -0.359375 -1.046875q-0.453125 -0.53125 -1.15625 -0.53125q-0.640625 0 -1.09375 0.4375q-0.4375 0.421875 -0.484375 1.140625zm5.2077637 3.296875l0 -7.625l0.9375 0l0 7.625l-0.9375 0zm5.9924927 -0.6875q-0.53125 0.453125 -1.015625 0.640625q-0.46875 0.171875 -1.015625 0.171875q-0.921875 0 -1.40625 -0.4375q-0.484375 -0.453125 -0.484375 -1.140625q0 -0.40625 0.171875 -0.734375q0.1875 -0.34375 0.484375 -0.546875q0.3125 -0.203125 0.6875 -0.3125q0.265625 -0.0625 0.828125 -0.140625q1.125 -0.125 1.671875 -0.3125q0 -0.203125 0 -0.25q0 -0.578125 -0.265625 -0.8125q-0.359375 -0.3125 -1.0625 -0.3125q-0.65625 0 -0.984375 0.234375q-0.3125 0.234375 -0.453125 0.8125l-0.921875 -0.125q0.125 -0.578125 0.40625 -0.9375q0.296875 -0.375 0.828125 -0.5625q0.546875 -0.203125 1.25 -0.203125q0.71875 0 1.15625 0.171875q0.4375 0.171875 0.640625 0.421875q0.21875 0.25 0.296875 0.640625q0.046875 0.234375 0.046875 0.859375l0 1.25q0 1.296875 0.0625 1.65625q0.0625 0.34375 0.234375 0.65625l-0.96875 0q-0.15625 -0.296875 -0.1875 -0.6875zm-0.078125 -2.078125q-0.515625 0.203125 -1.53125 0.34375q-0.578125 0.078125 -0.828125 0.1875q-0.234375 0.109375 -0.359375 0.3125q-0.125 0.1875 -0.125 0.4375q0 0.375 0.28125 0.625q0.28125 0.25 0.828125 0.25q0.53125 0 0.953125 -0.234375q0.421875 -0.234375 0.625 -0.65625q0.15625 -0.3125 0.15625 -0.9375l0 -0.328125zm2.3483887 4.890625l-0.09375 -0.875q0.296875 0.078125 0.53125 0.078125q0.3125 0 0.5 -0.109375q0.1875 -0.09375 0.3125 -0.28125q0.078125 -0.140625 0.28125 -0.703125q0.03125 -0.078125 0.078125 -0.21875l-2.09375 -5.546875l1.015625 0l1.140625 3.203125q0.234375 0.609375 0.40625 1.28125q0.15625 -0.640625 0.375 -1.265625l1.1875 -3.21875l0.9375 0l-2.109375 5.625q-0.328125 0.90625 -0.515625 1.25q-0.25 0.46875 -0.578125 0.6875q-0.3125 0.21875 -0.765625 0.21875q-0.265625 0 -0.609375 -0.125z" fill-rule="nonzero" />
      <path fill="#000000" fill-opacity="0.0" d="m473.29398 125.091194l148.62991 0" fill-rule="evenodd" />
      <path stroke="#595959" stroke-width="4.0" stroke-linejoin="round" stroke-linecap="butt" d="m497.29398 125.09119l100.62991 0" fill-rule="evenodd" />
      <path fill="#595959" stroke="#595959" stroke-width="4.0" stroke-linecap="butt" d="m497.29398 118.48426l-18.152405 6.606926l18.152405 6.6069336z" fill-rule="evenodd" />
      <path fill="#595959" stroke="#595959" stroke-width="4.0" stroke-linecap="butt" d="m597.9239 131.69812l18.152405 -6.6069336l-18.152405 -6.606926z" fill-rule="evenodd" />
      <path fill="#eeeeee" d="m136.32545 169.6273l15.417328 -15.417328l15.417328 15.417328l-7.708664 0l0 15.417313l-15.417328 0l0 -15.417313z" fill-rule="evenodd" />
      <path stroke="#595959" stroke-width="1.0" stroke-linejoin="round" stroke-linecap="butt" d="m136.32545 169.6273l15.417328 -15.417328l15.417328 15.417328l-7.708664 0l0 15.417313l-15.417328 0l0 -15.417313z" fill-rule="evenodd" />
      <path fill="#000000" fill-opacity="0.0" d="m-104.19948 179.8189l507.40155 0l0 59.2126l-507.40155 0z" fill-rule="evenodd" />
      <path fill="#000000" d="m106.45064 201.6189l2.0 -9.546875l1.234375 0l1.609375 3.578125q0.734375 1.640625 1.15625 2.765625q0.25 0.65625 0.578125 1.765625q0.171875 -1.21875 0.4375 -2.5l1.171875 -5.609375l1.25 0l-2.0 9.546875l-1.265625 0l-2.359375 -5.515625q-0.640625 -1.453125 -0.984375 -2.5625q-0.09375 0.921875 -0.375 2.28125l-1.21875 5.796875l-1.234375 0zm14.484528 -2.34375l1.15625 0.109375q-0.25 0.859375 -1.140625 1.625q-0.890625 0.765625 -2.125 0.765625q-0.765625 0 -1.40625 -0.34375q-0.640625 -0.359375 -0.984375 -1.03125q-0.328125 -0.6875 -0.328125 -1.546875q0 -1.140625 0.515625 -2.203125q0.53125 -1.0625 1.359375 -1.578125q0.84375 -0.515625 1.8125 -0.515625q1.234375 0 1.96875 0.765625q0.75 0.765625 0.75 2.09375q0 0.5 -0.09375 1.046875l-5.09375 0q-0.03125 0.1875 -0.03125 0.359375q0 0.96875 0.4375 1.484375q0.453125 0.5 1.109375 0.5q0.59375 0 1.171875 -0.390625q0.59375 -0.390625 0.921875 -1.140625zm-3.421875 -1.71875l3.875 0q0.015625 -0.1875 0.015625 -0.265625q0 -0.875 -0.453125 -1.34375q-0.4375 -0.484375 -1.125 -0.484375q-0.765625 0 -1.390625 0.53125q-0.609375 0.515625 -0.921875 1.5625zm7.0687256 4.0625l-0.71875 -6.90625l1.140625 0l0.3125 3.09375l0.125 1.75q0 0.1875 0.03125 0.78125q0.203125 -0.65625 0.328125 -1.015625q0.140625 -0.359375 0.4375 -1.015625l1.65625 -3.59375l1.28125 0l0.21875 3.453125q0.0625 0.78125 0.0625 2.09375q0.328125 -0.859375 1.0625 -2.421875l1.484375 -3.125l1.1875 0l-3.390625 6.90625l-1.21875 0l-0.25 -4.046875q-0.03125 -0.390625 -0.046875 -1.484375q-0.265625 0.703125 -0.625 1.515625l-1.828125 4.015625l-1.25 0zm12.343765 0l2.0 -9.546875l1.265625 0l-2.0 9.546875l-1.265625 0zm3.3748627 0l1.453125 -6.90625l1.0625 0l-0.25 1.203125q0.6875 -0.71875 1.296875 -1.03125q0.609375 -0.328125 1.234375 -0.328125q0.84375 0 1.3125 0.453125q0.484375 0.453125 0.484375 1.21875q0 0.375 -0.171875 1.203125l-0.875 4.1875l-1.171875 0l0.921875 -4.375q0.125 -0.640625 0.125 -0.953125q0 -0.34375 -0.234375 -0.546875q-0.234375 -0.21875 -0.6875 -0.21875q-0.90625 0 -1.609375 0.65625q-0.703125 0.640625 -1.03125 2.21875l-0.671875 3.21875l-1.1875 0zm7.5843506 0l1.25 -6.0l-1.046875 0l0.1875 -0.90625l1.046875 0l0.203125 -0.984375q0.15625 -0.734375 0.3125 -1.0625q0.171875 -0.328125 0.546875 -0.53125q0.375 -0.21875 1.015625 -0.21875q0.453125 0 1.3125 0.1875l-0.21875 1.03125q-0.59375 -0.15625 -1.0 -0.15625q-0.34375 0 -0.53125 0.171875q-0.171875 0.171875 -0.296875 0.8125l-0.15625 0.75l1.3125 0l-0.1875 0.90625l-1.3125 0l-1.265625 6.0l-1.171875 0zm8.609253 -2.34375l1.15625 0.109375q-0.25 0.859375 -1.140625 1.625q-0.890625 0.765625 -2.125 0.765625q-0.765625 0 -1.40625 -0.34375q-0.640625 -0.359375 -0.984375 -1.03125q-0.32814026 -0.6875 -0.32814026 -1.546875q0 -1.140625 0.51564026 -2.203125q0.53125 -1.0625 1.359375 -1.578125q0.84375 -0.515625 1.8125 -0.515625q1.234375 0 1.96875 0.765625q0.75 0.765625 0.75 2.09375q0 0.5 -0.09375 1.046875l-5.09375 0q-0.03125 0.1875 -0.03125 0.359375q0 0.96875 0.4375 1.484375q0.453125 0.5 1.109375 0.5q0.59375 0 1.171875 -0.390625q0.59375 -0.390625 0.921875 -1.140625zm-3.421875 -1.71875l3.875 0q0.015625 -0.1875 0.015625 -0.265625q0 -0.875 -0.453125 -1.34375q-0.4375 -0.484375 -1.125 -0.484375q-0.765625 0 -1.390625 0.53125q-0.609375 0.515625 -0.921875 1.5625zm10.537476 1.546875l1.171875 0.125q-0.4375 1.296875 -1.265625 1.921875q-0.8125 0.625 -1.84375 0.625q-1.140625 0 -1.84375 -0.71875q-0.6875 -0.734375 -0.6875 -2.046875q0 -1.125 0.4375 -2.21875q0.453125 -1.09375 1.28125 -1.65625q0.84375 -0.578125 1.921875 -0.578125q1.109375 0 1.765625 0.625q0.65625 0.625 0.65625 1.65625l-1.15625 0.078125q-0.015625 -0.65625 -0.390625 -1.015625q-0.375 -0.375 -0.984375 -0.375q-0.703125 0 -1.234375 0.453125q-0.515625 0.4375 -0.8125 1.359375q-0.296875 0.90625 -0.296875 1.75q0 0.890625 0.390625 1.34375q0.390625 0.4375 0.96875 0.4375q0.5625 0 1.078125 -0.4375q0.53125 -0.4375 0.84375 -1.328125zm4.6484375 1.5625l-0.203125 0.953125q-0.421875 0.109375 -0.8125 0.109375q-0.703125 0 -1.125 -0.34375q-0.3125 -0.25 -0.3125 -0.703125q0 -0.234375 0.171875 -1.046875l0.828125 -4.015625l-0.921875 0l0.1875 -0.90625l0.9375 0l0.34375 -1.703125l1.359375 -0.8125l-0.53125 2.515625l1.15625 0l-0.1875 0.90625l-1.15625 0l-0.796875 3.8125q-0.15625 0.734375 -0.15625 0.875q0 0.21875 0.109375 0.328125q0.125 0.109375 0.40625 0.109375q0.390625 0 0.703125 -0.078125zm2.6092224 -7.25l0.28125 -1.34375l1.171875 0l-0.28125 1.34375l-1.171875 0zm-1.71875 8.203125l1.453125 -6.90625l1.171875 0l-1.4375 6.90625l-1.1875 0zm3.226715 -2.625q0 -2.015625 1.1875 -3.34375q0.984375 -1.09375 2.578125 -1.09375q1.25 0 2.015625 0.78125q0.765625 0.78125 0.765625 2.109375q0 1.1875 -0.484375 2.21875q-0.484375 1.015625 -1.375 1.5625q-0.890625 0.546875 -1.875 0.546875q-0.796875 0 -1.46875 -0.34375q-0.65625 -0.34375 -1.0 -0.96875q-0.34375 -0.640625 -0.34375 -1.46875zm1.171875 -0.109375q0 0.96875 0.46875 1.484375q0.46875 0.5 1.1875 0.5q0.375 0 0.75 -0.15625q0.375 -0.15625 0.6875 -0.46875q0.328125 -0.3125 0.546875 -0.703125q0.21875 -0.40625 0.359375 -0.875q0.203125 -0.640625 0.203125 -1.234375q0 -0.9375 -0.46875 -1.453125q-0.46875 -0.515625 -1.1875 -0.515625q-0.5625 0 -1.015625 0.265625q-0.453125 0.265625 -0.828125 0.78125q-0.359375 0.5 -0.53125 1.171875q-0.171875 0.671875 -0.171875 1.203125zm6.0218506 2.734375l1.453125 -6.90625l1.0625 0l-0.25 1.203125q0.6875 -0.71875 1.296875 -1.03125q0.609375 -0.328125 1.234375 -0.328125q0.84375 0 1.3125 0.453125q0.484375 0.453125 0.484375 1.21875q0 0.375 -0.171875 1.203125l-0.875 4.1875l-1.171875 0l0.921875 -4.375q0.125 -0.640625 0.125 -0.953125q0 -0.34375 -0.234375 -0.546875q-0.234375 -0.21875 -0.6875 -0.21875q-0.90625 0 -1.609375 0.65625q-0.703125 0.640625 -1.03125 2.21875l-0.671875 3.21875l-1.1875 0zm7.5218506 -2.359375l1.1875 -0.078125q0 0.515625 0.15625 0.875q0.15625 0.359375 0.578125 0.59375q0.421875 0.21875 0.96875 0.21875q0.78125 0 1.171875 -0.3125q0.390625 -0.3125 0.390625 -0.734375q0 -0.3125 -0.234375 -0.578125q-0.234375 -0.28125 -1.171875 -0.671875q-0.9375 -0.40625 -1.1875 -0.578125q-0.4375 -0.265625 -0.671875 -0.625q-0.21875 -0.359375 -0.21875 -0.828125q0 -0.8125 0.65625 -1.390625q0.65625 -0.59375 1.828125 -0.59375q1.296875 0 1.96875 0.609375q0.6875 0.59375 0.71875 1.578125l-1.15625 0.078125q-0.03125 -0.625 -0.453125 -0.984375q-0.40625 -0.375 -1.171875 -0.375q-0.609375 0 -0.953125 0.28125q-0.328125 0.28125 -0.328125 0.609375q0 0.3125 0.296875 0.5625q0.1875 0.171875 1.0 0.53125q1.359375 0.578125 1.703125 0.921875q0.5625 0.53125 0.5625 1.3125q0 0.515625 -0.3125 1.015625q-0.3125 0.484375 -0.96875 0.78125q-0.640625 0.296875 -1.515625 0.296875q-1.203125 0 -2.046875 -0.59375q-0.84375 -0.59375 -0.796875 -1.921875z" fill-rule="nonzero" />
      <path fill="#000000" d="m130.87529 213.85327l0.234375 -1.078125l4.171875 0l-0.8125 3.890625q-0.78125 0.484375 -1.796875 0.796875q-1.0 0.3125 -1.984375 0.3125q-2.078125 0 -3.109375 -1.25q-0.859375 -1.0625 -0.859375 -2.71875q0 -1.71875 0.75 -3.125q0.765625 -1.421875 1.921875 -2.09375q1.15625 -0.671875 2.5625 -0.671875q1.015625 0 1.8125 0.375q0.8125 0.359375 1.234375 0.984375q0.4375 0.609375 0.625 1.59375l-1.234375 0.140625q-0.203125 -0.984375 -0.84375 -1.5q-0.640625 -0.53125 -1.625 -0.53125q-1.046875 0 -1.953125 0.5625q-0.890625 0.5625 -1.421875 1.703125q-0.53125 1.125 -0.53125 2.578125q0 1.4375 0.703125 2.171875q0.71875 0.734375 1.96875 0.734375q1.234375 0 2.671875 -0.828125l0.421875 -2.046875l-2.90625 0zm5.570175 1.140625q0 -2.015625 1.1875 -3.34375q0.984375 -1.09375 2.578125 -1.09375q1.25 0 2.015625 0.78125q0.765625 0.78125 0.765625 2.109375q0 1.1875 -0.484375 2.21875q-0.484375 1.015625 -1.375 1.5625q-0.890625 0.546875 -1.875 0.546875q-0.796875 0 -1.46875 -0.34375q-0.65625 -0.34375 -1.0 -0.96875q-0.34375 -0.640625 -0.34375 -1.46875zm1.171875 -0.109375q0 0.96875 0.46875 1.484375q0.46875 0.5 1.1875 0.5q0.375 0 0.75 -0.15625q0.375 -0.15625 0.6875 -0.46875q0.328125 -0.3125 0.546875 -0.703125q0.21875 -0.40625 0.359375 -0.875q0.203125 -0.640625 0.203125 -1.234375q0 -0.9375 -0.46875 -1.453125q-0.46875 -0.515625 -1.1875 -0.515625q-0.5625 0 -1.015625 0.265625q-0.453125 0.265625 -0.828125 0.78125q-0.359375 0.5 -0.53125 1.171875q-0.171875 0.671875 -0.171875 1.203125zm9.724838 2.734375l2.0 -9.546875l1.171875 0l-0.765625 3.671875q0.65625 -0.640625 1.21875 -0.90625q0.578125 -0.28125 1.171875 -0.28125q0.859375 0 1.328125 0.453125q0.484375 0.453125 0.484375 1.1875q0 0.359375 -0.203125 1.34375l-0.859375 4.078125l-1.171875 0l0.875 -4.1875q0.1875 -0.90625 0.1875 -1.140625q0 -0.34375 -0.234375 -0.546875q-0.234375 -0.21875 -0.671875 -0.21875q-0.640625 0 -1.21875 0.34375q-0.578125 0.328125 -0.90625 0.90625q-0.328125 0.578125 -0.609375 1.875l-0.609375 2.96875l-1.1875 0zm12.490601 -2.34375l1.15625 0.109375q-0.25 0.859375 -1.140625 1.625q-0.890625 0.765625 -2.125 0.765625q-0.765625 0 -1.40625 -0.34375q-0.640625 -0.359375 -0.984375 -1.03125q-0.328125 -0.6875 -0.328125 -1.546875q0 -1.140625 0.515625 -2.203125q0.53125 -1.0625 1.359375 -1.578125q0.84375 -0.515625 1.8125 -0.515625q1.234375 0 1.96875 0.765625q0.75 0.765625 0.75 2.09375q0 0.5 -0.09375 1.046875l-5.09375 0q-0.03125 0.1875 -0.03125 0.359375q0 0.96875 0.4375 1.484375q0.453125 0.5 1.109375 0.5q0.59375 0 1.171875 -0.390625q0.59375 -0.390625 0.921875 -1.140625zm-3.421875 -1.71875l3.875 0q0.015625 -0.1875 0.015625 -0.265625q0 -0.875 -0.453125 -1.34375q-0.4375 -0.484375 -1.125 -0.484375q-0.765625 0 -1.390625 0.53125q-0.609375 0.515625 -0.921875 1.5625zm5.7562256 4.0625l1.453125 -6.90625l1.03125 0l-0.28125 1.40625q0.53125 -0.796875 1.03125 -1.171875q0.515625 -0.390625 1.046875 -0.390625q0.359375 0 0.875 0.25l-0.484375 1.09375q-0.3125 -0.21875 -0.671875 -0.21875q-0.625 0 -1.28125 0.6875q-0.640625 0.6875 -1.015625 2.484375l-0.578125 2.765625l-1.125 0zm9.51651 -2.34375l1.15625 0.109375q-0.25 0.859375 -1.140625 1.625q-0.890625 0.765625 -2.125 0.765625q-0.765625 0 -1.40625 -0.34375q-0.640625 -0.359375 -0.984375 -1.03125q-0.328125 -0.6875 -0.328125 -1.546875q0 -1.140625 0.515625 -2.203125q0.53125 -1.0625 1.359375 -1.578125q0.84375 -0.515625 1.8125 -0.515625q1.234375 0 1.96875 0.765625q0.75 0.765625 0.75 2.09375q0 0.5 -0.09375 1.046875l-5.09375 0q-0.03125 0.1875 -0.03125 0.359375q0 0.96875 0.4375 1.484375q0.453125 0.5 1.109375 0.5q0.59375 0 1.171875 -0.390625q0.59375 -0.390625 0.921875 -1.140625zm-3.421875 -1.71875l3.875 0q0.015625 -0.1875 0.015625 -0.265625q0 -0.875 -0.453125 -1.34375q-0.4375 -0.484375 -1.125 -0.484375q-0.765625 0 -1.390625 0.53125q-0.609375 0.515625 -0.921875 1.5625z" fill-rule="nonzero" />
   </g>
</svg>
